<svg width="75" height="32" viewBox="0 0 75 32" fill="none" xmlns="http://www.w3.org/2000/svg">
<path d="M0.536 24V0.447998H7.192V24H0.536ZM18.4475 31.168C16.7622 31.168 15.2902 31.0293 14.0315 30.752C12.7942 30.4747 11.6742 30.0693 10.6715 29.536L11.7595 24.832C12.2928 25.1307 12.9115 25.3867 13.6155 25.6C14.3195 25.8347 15.0448 26.0053 15.7915 26.112C16.5382 26.24 17.2208 26.304 17.8395 26.304C19.1622 26.304 20.1328 26.016 20.7515 25.44C21.3702 24.8853 21.6795 24.0853 21.6795 23.04V20.768H21.9675C21.6262 21.6213 20.9648 22.304 19.9835 22.816C19.0022 23.328 17.9355 23.584 16.7835 23.584C15.3542 23.584 14.0955 23.2533 13.0075 22.592C11.9195 21.9307 11.0662 20.992 10.4475 19.776C9.85017 18.56 9.5515 17.12 9.5515 15.456C9.5515 13.792 9.85017 12.352 10.4475 11.136C11.0662 9.89867 11.9195 8.94933 13.0075 8.288C14.0955 7.62667 15.3542 7.296 16.7835 7.296C17.9782 7.296 19.0448 7.552 19.9835 8.064C20.9222 8.576 21.5622 9.23733 21.9035 10.048H21.6795L22.0315 7.68H28.4315C28.3462 8.448 28.2822 9.22667 28.2395 10.016C28.1968 10.784 28.1755 11.552 28.1755 12.32V22.304C28.1755 25.1413 27.3435 27.328 25.6795 28.864C24.0155 30.4 21.6048 31.168 18.4475 31.168ZM18.9595 18.688C19.7702 18.688 20.4102 18.4213 20.8795 17.888C21.3488 17.3333 21.5835 16.5227 21.5835 15.456C21.5835 14.368 21.3488 13.5573 20.8795 13.024C20.4102 12.4693 19.7702 12.192 18.9595 12.192C18.1275 12.192 17.4662 12.4693 16.9755 13.024C16.5062 13.5573 16.2715 14.368 16.2715 15.456C16.2715 16.5227 16.5062 17.3333 16.9755 17.888C17.4662 18.4213 18.1275 18.688 18.9595 18.688ZM42.7108 24.384C41.5374 24.384 40.4494 24.1067 39.4468 23.552C38.4441 22.9973 37.7828 22.272 37.4628 21.376H37.8148V24H31.2548V0.447998H37.9108V10.112H37.4948C37.8574 9.28 38.5294 8.608 39.5108 8.096C40.4921 7.56267 41.5588 7.296 42.7108 7.296C44.0974 7.296 45.3241 7.648 46.3908 8.352C47.4788 9.03467 48.3321 10.0267 48.9508 11.328C49.5694 12.608 49.8788 14.1333 49.8788 15.904C49.8788 17.6747 49.5694 19.2 48.9508 20.48C48.3321 21.7387 47.4788 22.7093 46.3908 23.392C45.3241 24.0533 44.0974 24.384 42.7108 24.384ZM40.5028 19.488C41.2708 19.488 41.9108 19.2213 42.4228 18.688C42.9348 18.1547 43.1908 17.2267 43.1908 15.904C43.1908 14.5813 42.9348 13.632 42.4228 13.056C41.9108 12.48 41.2708 12.192 40.5028 12.192C39.7134 12.192 39.0628 12.4693 38.5508 13.024C38.0601 13.5787 37.8148 14.5173 37.8148 15.84C37.8148 17.1627 38.0601 18.1013 38.5508 18.656C39.0628 19.2107 39.7134 19.488 40.5028 19.488ZM58.782 24.384C57.2033 24.384 55.774 24.2347 54.494 23.936C53.2353 23.6373 52.158 23.232 51.262 22.72L52.798 18.432C53.63 18.8587 54.5793 19.2213 55.646 19.52C56.734 19.8187 57.79 19.968 58.814 19.968C59.4967 19.968 59.9767 19.8827 60.254 19.712C60.5313 19.52 60.67 19.2853 60.67 19.008C60.67 18.7733 60.574 18.592 60.382 18.464C60.2113 18.336 59.966 18.2507 59.646 18.208L56.062 17.6C54.6753 17.3653 53.598 16.864 52.83 16.096C52.062 15.3067 51.678 14.2827 51.678 13.024C51.678 11.872 51.9873 10.8693 52.606 10.016C53.246 9.16267 54.142 8.50133 55.294 8.032C56.4673 7.54133 57.8433 7.296 59.422 7.296C60.6807 7.296 61.886 7.43467 63.038 7.712C64.2113 7.968 65.2353 8.384 66.11 8.96L64.478 13.12C63.8167 12.7147 63.0273 12.384 62.11 12.128C61.214 11.8507 60.3927 11.712 59.646 11.712C58.8567 11.712 58.302 11.808 57.982 12C57.6833 12.1707 57.534 12.3947 57.534 12.672C57.534 12.864 57.6087 13.0347 57.758 13.184C57.9287 13.312 58.1847 13.408 58.526 13.472L62.11 14.048C63.518 14.2613 64.606 14.752 65.374 15.52C66.142 16.2667 66.526 17.2907 66.526 18.592C66.526 19.8293 66.1953 20.8747 65.534 21.728C64.894 22.5813 63.9873 23.2427 62.814 23.712C61.662 24.16 60.318 24.384 58.782 24.384ZM68.059 24V17.376H74.811V24H68.059Z" fill="black"/>
</svg>
