<svg width="668" height="530" viewBox="0 0 668 530" fill="none" xmlns="http://www.w3.org/2000/svg">
<path opacity="0.010101" d="M962.686 288.82C969.449 292.883 972.879 300.778 971.265 308.473L971.184 308.839L871.047 742.578C869.272 750.265 862.824 755.966 855.008 756.809L854.634 756.846L411.18 795.643C403.196 796.341 395.67 791.819 392.538 784.441L218.605 374.681C215.523 367.419 217.389 359.016 223.217 353.74L223.498 353.49L559.455 61.4475C565.409 56.2716 573.978 55.4485 580.797 59.3615L581.12 59.5522L962.686 288.82Z" stroke="#E4BB25" stroke-width="3"/>
<path opacity="0.020202" d="M968.693 292.806C975.384 296.986 978.676 304.94 976.928 312.605L976.84 312.97L869.359 744.055C867.45 751.71 860.903 757.298 853.073 758.004L852.699 758.035L409.499 789.026C401.504 789.585 394.058 784.933 391.056 777.502L224.625 365.57C221.669 358.255 223.681 349.886 229.601 344.712L229.886 344.468L570.226 58.8891C576.269 53.8178 584.851 53.1445 591.601 57.1758L591.921 57.3722L968.693 292.806Z" stroke="#E4BB25" stroke-width="3"/>
<path opacity="0.030303" d="M974.581 296.815C981.197 301.112 984.35 309.121 982.468 316.755L982.375 317.118L867.61 745.427C865.568 753.047 858.925 758.52 851.084 759.09L850.709 759.113L407.899 782.32C399.896 782.739 392.532 777.957 389.66 770.475L230.753 356.51C227.926 349.144 230.084 340.811 236.093 335.741L236.382 335.502L580.982 56.4509C587.113 51.486 595.705 50.9631 602.384 55.1113L602.7 55.3129L974.581 296.815Z" stroke="#E4BB25" stroke-width="3"/>
<path opacity="0.040404" d="M980.349 300.846C986.89 305.258 989.902 313.321 987.887 320.92L987.787 321.282L865.804 746.69C863.629 754.273 856.891 759.63 849.04 760.062L848.666 760.079L406.384 775.524C398.374 775.804 391.095 770.894 388.354 763.363L236.992 347.5C234.294 340.086 236.597 331.793 242.694 326.829L242.987 326.594L591.722 54.1323C597.939 49.2751 606.539 48.9027 613.144 53.1673L613.457 53.3735L980.349 300.846Z" stroke="#E4BB25" stroke-width="3"/>
<path opacity="0.050505" d="M985.997 304.896C992.46 309.421 995.331 317.536 993.184 325.099L993.078 325.459L863.941 747.845C861.635 755.39 854.804 760.628 846.947 760.923L846.573 760.933L404.954 768.642C396.941 768.782 389.748 763.746 387.139 756.168L243.34 338.545C240.771 331.085 243.219 322.833 249.401 317.976L249.699 317.748L602.444 51.9338C608.745 47.1859 617.35 46.9637 623.88 51.3429L624.189 51.5544L985.997 304.896Z" stroke="#E4BB25" stroke-width="3"/>
<path opacity="0.0606061" d="M991.526 308.965C997.909 313.602 1000.64 321.766 998.359 329.29L998.246 329.648L862.026 748.894C859.588 756.397 852.666 761.515 844.806 761.673L844.431 761.676L403.61 761.677C395.595 761.677 388.492 756.516 386.015 748.894L249.794 329.649C247.356 322.145 249.947 313.936 256.214 309.188L256.515 308.965L613.147 49.8561C619.53 45.219 628.137 45.1469 634.589 49.6393L634.895 49.8563L991.526 308.965Z" stroke="#E4BB25" stroke-width="3"/>
<path opacity="0.0707071" d="M996.935 313.049C1003.24 317.797 1005.82 326.007 1003.41 333.491L1003.29 333.847L860.058 749.833C857.49 757.292 850.48 762.289 842.618 762.31L842.244 762.307L402.355 754.629C394.341 754.489 387.329 749.205 384.986 741.54L256.355 320.809C254.049 313.264 256.782 305.102 263.131 300.464L263.436 300.246L623.826 47.8971C630.289 43.3722 638.897 43.4502 645.269 48.0546L645.571 48.2768L996.935 313.049Z" stroke="#E4BB25" stroke-width="3"/>
<path opacity="0.0808081" d="M1002.22 317.145C1008.44 322.002 1010.88 330.257 1008.34 337.697L1008.22 338.05L858.04 750.66C855.342 758.074 848.247 762.947 840.386 762.831L840.01 762.822L401.187 747.498C393.178 747.218 386.259 741.813 384.05 734.109L263.02 312.028C260.846 304.444 263.722 296.331 270.15 291.805L270.458 291.591L634.481 46.0557C641.022 41.6439 649.627 41.8712 655.918 46.5862L656.215 46.8139L1002.22 317.145Z" stroke="#E4BB25" stroke-width="3"/>
<path opacity="0.0909091" d="M1007.39 321.254C1013.52 326.219 1015.82 334.514 1013.15 341.909L1013.02 342.261L855.975 751.379C853.148 758.744 845.969 763.493 838.111 763.24L837.736 763.224L400.112 740.289C392.108 739.869 385.285 734.344 383.211 726.602L269.79 303.31C267.748 295.689 270.765 287.627 277.271 283.213L277.583 283.006L645.109 44.3317C651.726 40.0348 660.325 40.4127 666.534 45.2365L666.828 45.4701L1007.39 321.254Z" stroke="#E4BB25" stroke-width="3"/>
<path opacity="0.10101" d="M1012.44 325.372C1018.49 330.443 1020.64 338.777 1017.84 346.124L1017.7 346.474L853.865 751.986C850.91 759.301 843.649 763.924 835.796 763.533L835.422 763.511L399.128 733.002C391.133 732.443 384.407 726.799 382.468 719.023L276.662 294.655C274.753 287 277.91 278.991 284.492 274.692L284.808 274.49L655.71 42.7253C662.4 38.5446 670.992 39.0725 677.115 44.0039L677.405 44.2425L1012.44 325.372Z" stroke="#E4BB25" stroke-width="3"/>
<path opacity="0.111111" d="M1017.37 329.494C1023.32 334.67 1025.33 343.041 1022.41 350.338L1022.26 350.685L851.711 752.48C848.628 759.742 841.288 764.238 833.443 763.71L833.07 763.681L398.236 725.638C390.252 724.94 383.626 719.179 381.823 711.37L283.633 286.063C281.858 278.376 285.155 270.425 291.811 266.241L292.13 266.044L666.279 41.233C673.042 37.1698 681.623 37.8475 687.659 42.885L687.945 43.1287L1017.37 329.494Z" stroke="#E4BB25" stroke-width="3"/>
<path opacity="0.121212" d="M1022.18 333.624C1028.04 338.903 1029.9 347.307 1026.85 354.553L1026.7 354.897L849.516 752.864C846.307 760.071 838.889 764.438 831.055 763.774L830.682 763.738L397.44 718.202C389.469 717.364 382.944 711.489 381.277 703.65L290.705 277.54C289.065 269.823 292.5 261.931 299.228 257.864L299.551 257.673L676.817 39.8583C683.649 35.9137 692.217 36.7411 698.164 41.8831L698.445 42.1317L1022.18 333.624Z" stroke="#E4BB25" stroke-width="3"/>
<path opacity="0.131313" d="M1026.87 337.755C1032.64 343.136 1034.35 351.571 1031.18 358.762L1031.02 359.103L847.281 753.132C843.947 760.283 836.454 764.519 828.632 763.718L828.26 763.676L396.737 710.692C388.782 709.715 382.361 703.727 380.831 695.86L297.874 269.084C296.369 261.34 299.941 253.508 306.739 249.559L307.065 249.374L687.319 38.5958C694.219 34.7711 702.771 35.7484 708.628 40.9938L708.905 41.2464L1026.87 337.755Z" stroke="#E4BB25" stroke-width="3"/>
<path opacity="0.141414" d="M1031.44 341.886C1037.12 347.366 1038.68 355.83 1035.38 362.965L1035.22 363.304L845.009 753.289C841.55 760.38 833.985 764.484 826.179 763.547L825.806 763.498L396.131 703.111C388.195 701.996 381.879 695.897 380.487 688.004L305.141 260.698C303.771 252.928 307.479 245.16 314.346 241.33L314.675 241.151L697.784 37.4478C704.75 33.7438 713.285 34.8702 719.049 40.2171L719.32 40.4747L1031.44 341.886Z" stroke="#E4BB25" stroke-width="3"/>
<path opacity="0.151515" d="M1035.89 346.016C1041.47 351.595 1042.89 360.085 1039.46 367.161L1039.29 367.496L842.702 753.332C839.12 760.361 831.484 764.333 823.696 763.26L823.324 763.205L395.622 695.464C387.707 694.21 381.498 688.002 380.244 680.086L312.503 252.384C311.269 244.592 315.112 236.89 322.044 233.18L322.376 233.006L708.212 36.4133C715.241 32.8316 723.754 34.1071 729.424 39.5535L729.692 39.8156L1035.89 346.016Z" stroke="#E4BB25" stroke-width="3"/>
<path opacity="0.161616" d="M1040.23 350.142C1045.71 355.817 1046.98 364.331 1043.42 371.345L1043.25 371.678L840.362 753.26C836.658 760.225 828.954 764.064 821.185 762.855L820.815 762.793L395.213 687.749C387.32 686.357 381.221 680.041 380.105 672.104L319.959 244.143C318.861 236.33 322.838 228.696 329.834 225.108L330.169 224.94L718.599 35.4899C725.69 32.0314 734.179 33.4553 739.753 38.9998L740.016 39.2666L1040.23 350.142Z" stroke="#E4BB25" stroke-width="3"/>
<path opacity="0.171717" d="M1044.44 354.261C1049.82 360.031 1050.94 368.566 1047.27 375.518L1047.09 375.847L837.991 753.073C834.166 759.973 826.395 763.676 818.649 762.331L818.28 762.263L394.903 679.967C387.035 678.438 381.047 672.017 380.07 664.062L327.508 235.975C326.546 228.144 330.656 220.58 337.713 217.115L338.052 216.953L728.944 34.6775C736.094 31.3433 744.557 32.9142 750.033 38.5552L750.292 38.8264L1044.44 354.261Z" stroke="#E4BB25" stroke-width="3"/>
<path opacity="0.181818" d="M1048.54 358.374C1053.81 364.237 1054.79 372.789 1050.99 379.676L1050.81 380.002L835.59 752.771C831.646 759.604 823.812 763.171 816.09 761.692L815.723 761.617L394.691 672.124C386.852 670.458 380.977 663.933 380.139 655.962L335.146 227.883C334.322 220.037 338.563 212.547 345.679 209.205L346.02 209.049L739.244 33.975C746.452 30.7661 754.886 32.4845 760.263 38.2201L760.517 38.4959L1048.54 358.374Z" stroke="#E4BB25" stroke-width="3"/>
<path opacity="0.191919" d="M1052.51 362.474C1057.69 368.429 1058.51 376.997 1054.6 383.816L1054.41 384.14L833.164 752.354C829.1 759.117 821.205 762.547 813.51 760.933L813.145 760.852L394.583 664.219C386.774 662.416 381.014 655.79 380.315 647.806L342.875 219.869C342.188 212.009 346.559 204.594 353.733 201.378L354.076 201.228L749.499 33.3806C756.761 30.2981 765.164 32.1634 770.441 37.992L770.69 38.2731L1052.51 362.474Z" stroke="#E4BB25" stroke-width="3"/>
<path opacity="0.20202" d="M1056.37 366.566C1061.45 372.609 1062.12 381.191 1058.09 387.941L1057.89 388.261L830.713 751.825C826.532 758.515 818.578 761.806 810.913 760.058L810.547 759.971L394.576 656.258C386.8 654.318 381.156 647.593 380.596 639.598L350.691 211.937C350.141 204.066 354.641 196.728 361.87 193.637L362.216 193.493L759.705 32.8968C767.02 29.9414 775.391 31.953 780.564 37.8728L780.808 38.1582L1056.37 366.566Z" stroke="#E4BB25" stroke-width="3"/>
<path opacity="0.212121" d="M1060.12 370.64C1065.08 376.771 1065.61 385.363 1061.46 392.041L1061.26 392.358L828.238 751.176C823.941 757.792 815.931 760.945 808.298 759.063L807.934 758.97L394.672 648.236C386.93 646.162 381.405 639.338 380.985 631.335L358.594 204.08C358.181 196.202 362.808 188.943 370.09 185.978L370.439 185.841L769.862 32.5164C777.228 29.689 785.561 31.8464 790.631 37.8557L790.869 38.1454L1060.12 370.64Z" stroke="#E4BB25" stroke-width="3"/>
<path opacity="0.222222" d="M1063.75 374.7C1068.6 380.917 1068.98 389.517 1064.71 396.122L1064.51 396.435L825.744 750.413C821.332 756.954 813.269 759.966 805.669 757.951L805.307 757.852L394.873 640.162C387.168 637.952 381.763 631.033 381.483 623.024L366.582 196.308C366.307 188.424 371.06 181.247 378.392 178.411L378.743 178.278L779.968 32.2442C787.382 29.5458 795.676 31.8492 800.64 37.9462L800.874 38.239L1063.75 374.7Z" stroke="#E4BB25" stroke-width="3"/>
<path opacity="0.232323" d="M1067.26 378.74C1072.01 385.041 1072.23 393.646 1067.85 400.176L1067.64 400.485L823.231 749.534C818.705 755.997 810.59 758.867 803.027 756.72L802.667 756.614L395.176 632.032C387.512 629.689 382.228 622.676 382.088 614.663L374.651 188.618C374.513 180.73 379.391 173.637 386.772 170.929L387.125 170.803L790.02 32.0749C797.48 29.5063 805.733 31.9541 810.589 38.1367L810.818 38.4336L1067.26 378.74Z" stroke="#E4BB25" stroke-width="3"/>
<path opacity="0.242424" d="M1070.65 382.76C1075.29 389.142 1075.36 397.75 1070.87 404.202L1070.65 404.508L820.701 748.538C816.064 754.921 807.9 757.65 800.375 755.371L800.018 755.259L395.586 623.851C387.964 621.374 382.803 614.271 382.803 606.256L382.803 181.012C382.803 173.122 387.804 166.115 395.231 163.536L395.586 163.417L800.018 32.0088C807.521 29.5709 815.73 32.1623 820.478 38.4287L820.701 38.7295L1070.65 382.76Z" stroke="#E4BB25" stroke-width="3"/>
<path opacity="0.252525" d="M1073.94 386.758C1078.46 393.221 1078.38 401.828 1073.78 408.201L1073.56 408.503L818.158 747.427C813.41 753.728 805.2 756.314 797.716 753.905L797.361 753.786L396.101 615.622C388.524 613.012 383.487 605.82 383.627 597.807L391.034 173.492C391.171 165.604 396.294 158.687 403.764 156.237L404.122 156.123L809.959 32.0464C817.503 29.74 825.665 32.4742 830.303 38.8225L830.522 39.1271L1073.94 386.758Z" stroke="#E4BB25" stroke-width="3"/>
<path opacity="0.262626" d="M1077.1 390.732C1081.51 397.273 1081.29 405.879 1076.57 412.17L1076.34 412.468L815.603 746.202C810.746 752.419 802.492 754.86 795.051 752.32L794.698 752.195L396.724 607.345C389.193 604.604 384.284 597.325 384.563 589.316L399.344 166.059C399.619 158.175 404.861 151.348 412.374 149.029L412.733 148.922L819.841 32.186C827.425 30.0115 835.538 32.8868 840.065 39.3151L840.278 39.6235L1077.1 390.732Z" stroke="#E4BB25" stroke-width="3"/>
<path opacity="0.272727" d="M1080.16 394.68C1084.45 401.297 1084.08 409.896 1079.25 416.104L1079.02 416.398L813.037 744.858C808.072 750.989 799.777 753.287 792.382 750.618L792.03 750.487L397.454 599.023C389.972 596.151 385.189 588.787 385.609 580.783L407.728 158.714C408.141 150.836 413.502 144.1 421.054 141.913L421.415 141.813L829.662 32.4232C837.283 30.3812 845.345 33.3978 849.759 39.9042L849.966 40.2162L1080.16 394.68Z" stroke="#E4BB25" stroke-width="3"/>
<path opacity="0.282828" d="M1083.1 398.599C1087.28 405.289 1086.75 413.881 1081.82 420.004L1081.58 420.294L810.464 743.398C805.393 749.442 797.059 751.594 789.711 748.797L789.362 748.66L398.291 590.657C390.86 587.655 386.207 580.209 386.766 572.213L416.188 151.458C416.739 143.587 422.216 136.947 429.805 134.892L430.168 134.798L839.422 32.7593C847.077 30.8507 855.085 34.0077 859.385 40.5898L859.587 40.9064L1083.1 398.599Z" stroke="#E4BB25" stroke-width="3"/>
<path opacity="0.292929" d="M1085.93 402.486C1089.99 409.249 1089.31 417.83 1084.27 423.866L1084.03 424.151L807.884 741.823C802.708 747.777 794.337 749.783 787.04 746.857L786.694 746.714L399.237 582.249C391.86 579.117 387.337 571.591 388.036 563.607L424.721 144.291C425.409 136.431 431.001 129.888 438.625 127.966L438.989 127.877L849.119 33.1916C856.806 31.4169 864.757 34.7132 868.942 41.3694L869.138 41.6895L1085.93 402.486Z" stroke="#E4BB25" stroke-width="3"/>
<path opacity="0.30303" d="M1088.65 406.343C1092.59 413.176 1091.76 421.744 1086.62 427.691L1086.37 427.972L805.302 740.133C800.023 745.996 791.618 747.856 784.373 744.804L784.029 744.655L400.292 573.803C392.97 570.543 388.58 562.939 389.418 554.969L433.325 137.217C434.15 129.371 439.856 122.926 447.511 121.137L447.877 121.056L858.751 33.7219C866.468 32.0817 874.361 35.5162 878.428 42.2443L878.619 42.5678L1088.65 406.343Z" stroke="#E4BB25" stroke-width="3"/>
<path opacity="0.313131" d="M1091.25 410.166C1095.08 417.066 1094.1 425.618 1088.86 431.475L1088.6 431.751L802.717 738.325C797.337 744.095 788.901 745.809 781.71 742.63L781.369 742.475L401.456 565.319C394.193 561.931 389.936 554.253 390.912 546.298L441.998 130.235C442.96 122.404 448.777 116.059 456.463 114.404L456.831 114.329L868.316 34.3446C876.061 32.8393 883.892 36.4111 887.841 43.2091L888.027 43.5359L1091.25 410.166Z" stroke="#E4BB25" stroke-width="3"/>
<path opacity="0.323232" d="M1093.75 413.953C1097.45 420.919 1096.33 429.453 1090.98 435.217L1090.72 435.489L800.133 736.405C794.653 742.08 786.188 743.646 779.054 740.343L778.716 740.182L402.73 556.801C395.526 553.288 391.404 545.535 392.52 537.599L450.739 123.348C451.837 115.535 457.764 109.294 465.478 107.773L465.846 107.703L877.814 35.0626C885.583 33.6928 893.351 37.4012 897.181 44.2675L897.361 44.5965L1093.75 413.953Z" stroke="#E4BB25" stroke-width="3"/>
<path opacity="0.333333" d="M1096.14 417.701C1099.72 424.73 1098.45 433.243 1093 438.913L1092.74 439.181L797.552 734.367C791.973 739.946 783.482 741.364 776.407 737.937L776.07 737.77L404.114 548.248C396.973 544.61 392.987 536.787 394.241 528.871L459.546 116.553C460.78 108.761 466.815 102.624 474.554 101.238L474.924 101.176L887.241 35.8706C895.034 34.6366 902.736 38.48 906.445 45.4121L906.619 45.7441L1096.14 417.701Z" stroke="#E4BB25" stroke-width="3"/>
<path opacity="0.343434" d="M1098.42 421.41C1101.88 428.501 1100.46 436.99 1094.91 442.564L1094.64 442.827L794.974 732.216C789.299 737.696 780.786 738.966 773.771 735.416L773.438 735.243L405.61 539.665C398.533 535.903 394.684 528.011 396.076 520.118L468.416 109.856C469.786 102.087 475.928 96.0548 483.69 94.8043L484.061 94.7487L896.597 36.7697C904.41 35.6717 912.045 39.6492 915.632 46.6451L915.799 46.98L1098.42 421.41Z" stroke="#E4BB25" stroke-width="3"/>
<path opacity="0.353535" d="M1100.6 425.076C1103.93 432.226 1102.36 440.69 1096.72 446.166L1096.45 446.425L792.403 729.949C786.633 735.329 778.099 736.451 771.147 732.778L770.817 732.6L407.215 531.051C400.205 527.166 396.495 519.208 398.024 511.341L477.348 103.253C478.853 95.5088 485.099 89.5851 492.882 88.4701L493.254 88.421L905.881 37.7573C913.711 36.7958 921.275 40.9051 924.74 47.9623L924.902 48.3002L1100.6 425.076Z" stroke="#E4BB25" stroke-width="3"/>
<path opacity="0.363636" d="M1102.66 428.701C1105.87 435.908 1104.15 444.343 1098.42 449.72L1098.14 449.973L789.841 727.569C783.978 732.848 775.425 733.82 768.538 730.027L768.212 729.843L408.933 522.412C401.992 518.405 398.421 510.384 400.087 502.544L486.341 96.7494C487.982 89.0325 494.33 83.2194 502.131 82.2406L502.503 82.197L915.091 38.8329C922.937 38.0082 930.427 42.2489 933.769 49.3654L933.925 49.7061L1102.66 428.701Z" stroke="#E4BB25" stroke-width="3"/>
<path opacity="0.373737" d="M1104.63 432.278C1107.71 439.54 1105.84 447.943 1100.02 453.22L1099.73 453.469L787.289 725.074C781.335 730.25 772.766 731.072 765.947 727.159L765.624 726.969L410.761 513.746C403.891 509.618 400.46 501.536 402.262 493.727L495.391 90.3418C497.166 82.655 503.615 76.9535 511.431 76.1107L511.805 76.0746L924.225 39.9926C932.084 39.305 939.5 43.6757 942.717 50.8495L942.867 51.1938L1104.63 432.278Z" stroke="#E4BB25" stroke-width="3"/>
<path opacity="0.383838" d="M1106.49 435.81C1109.44 443.125 1107.43 451.494 1101.51 456.668L1101.23 456.912L784.75 722.467C778.707 727.539 770.125 728.211 763.375 724.18L763.055 723.985L412.701 505.059C405.904 500.812 402.615 492.671 404.554 484.895L504.499 84.0365C506.408 76.3813 512.955 70.7925 520.785 70.0865L521.159 70.0569L933.283 41.2386C941.153 40.6883 948.491 45.1878 951.582 52.4165L951.726 52.7634L1106.49 435.81Z" stroke="#E4BB25" stroke-width="3"/>
<path opacity="0.393939" d="M1108.24 439.292C1111.07 446.658 1108.91 454.992 1102.9 460.062L1102.61 460.299L782.226 719.746C776.095 724.711 767.502 725.234 760.824 721.086L760.508 720.885L414.753 496.35C408.032 491.985 404.885 483.788 406.96 476.046L513.662 77.8289C515.703 70.2082 522.347 64.7355 530.189 64.1663L530.563 64.1423L942.262 42.5663C950.141 42.1535 957.399 46.7803 960.364 54.0619L960.502 54.4113L1108.24 439.292Z" stroke="#E4BB25" stroke-width="3"/>
<path opacity="0.40404" d="M1109.9 442.727C1112.6 450.141 1110.29 458.435 1104.2 463.399L1103.9 463.633L779.717 716.916C773.5 721.772 764.901 722.145 758.296 717.88L757.982 717.674L416.917 487.623C410.273 483.141 407.27 474.89 409.479 467.186L522.876 71.7236C525.051 64.14 531.789 58.7839 539.639 58.3514L540.014 58.334L951.162 43.9767C959.046 43.7013 966.224 48.4544 969.061 55.7868L969.192 56.1382L1109.9 442.727Z" stroke="#E4BB25" stroke-width="3"/>
<path opacity="0.414141" d="M1111.45 446.106C1114.02 453.566 1111.57 461.819 1105.39 466.676L1105.09 466.904L777.228 713.97C770.927 718.717 762.322 718.94 755.793 714.562L755.483 714.349L419.194 478.877C412.629 474.28 409.77 465.978 412.113 458.313L532.142 65.7185C534.448 58.1737 541.279 52.9352 549.136 52.64L549.51 52.63L959.981 45.4647C967.87 45.327 974.962 50.2052 977.67 57.586L977.796 57.9391L1111.45 446.106Z" stroke="#E4BB25" stroke-width="3"/>
<path opacity="0.424242" d="M1112.91 449.432C1115.35 456.936 1112.75 465.144 1106.49 469.893L1106.19 470.116L774.759 710.913C768.376 715.551 759.768 715.623 753.316 711.131L753.011 710.913L421.582 470.116C415.098 465.405 412.384 457.054 414.861 449.432L541.455 59.8148C543.893 52.3115 550.815 47.1931 558.675 47.0349L559.05 47.0314L968.719 47.0313C976.608 47.0313 983.614 52.0325 986.194 59.4595L986.313 59.8147L1112.91 449.432Z" stroke="#E4BB25" stroke-width="3"/>
<path opacity="0.434343" d="M1114.26 452.704C1116.57 460.248 1113.84 468.411 1107.49 473.049L1107.18 473.267L772.312 707.748C765.849 712.273 757.241 712.194 750.869 707.59L750.567 707.367L424.082 461.343C417.682 456.52 415.115 448.124 417.724 440.546L550.817 54.0148C553.386 46.5552 560.395 41.5592 568.257 41.5383L568.632 41.5404L977.373 48.675C985.261 48.8128 992.179 53.9354 994.628 61.4063L994.742 61.7635L1114.26 452.704Z" stroke="#E4BB25" stroke-width="3"/>
<path opacity="0.444444" d="M1115.52 455.918C1117.7 463.502 1114.82 471.615 1108.39 476.142L1108.08 476.354L769.889 704.47C763.349 708.882 754.744 708.654 748.452 703.939L748.155 703.711L426.695 452.56C420.38 447.626 417.96 439.185 420.701 431.654L560.224 48.3174C562.923 40.9038 570.018 36.0307 577.879 36.1472L578.254 36.1568L985.943 50.3937C993.827 50.6691 1000.65 55.9108 1002.97 63.4232L1003.08 63.7824L1115.52 455.918Z" stroke="#E4BB25" stroke-width="3"/>
<path opacity="0.454545" d="M1116.69 459.072C1118.73 466.693 1115.71 474.754 1109.2 479.168L1108.89 479.376L767.493 701.083C760.876 705.38 752.277 705.002 746.068 700.178L745.775 699.945L429.42 443.766C423.191 438.722 420.919 430.241 423.791 422.759L569.672 42.7241C572.5 35.3587 579.679 30.6095 587.537 30.863L587.912 30.8791L994.427 52.1841C1002.31 52.5971 1009.04 57.9572 1011.23 65.5089L1011.33 65.8699L1116.69 459.072Z" stroke="#E4BB25" stroke-width="3"/>
<path opacity="0.464646" d="M1117.75 462.166C1119.66 469.821 1116.51 477.829 1109.92 482.129L1109.61 482.331L765.124 697.588C758.433 701.769 749.842 701.24 743.719 696.309L743.429 696.07L432.257 434.966C426.117 429.814 423.993 421.295 426.996 413.864L579.163 37.2354C582.119 29.9204 589.38 25.2981 597.232 25.6887L597.607 25.7105L1002.82 54.0463C1010.69 54.5966 1017.34 60.0738 1019.39 67.6626L1019.48 68.0249L1117.75 462.166Z" stroke="#E4BB25" stroke-width="3"/>
<path opacity="0.474747" d="M1118.73 465.2C1120.5 472.887 1117.21 480.839 1110.55 485.023L1110.23 485.219L762.786 693.986C756.024 698.049 747.443 697.371 741.407 692.334L741.121 692.091L435.206 426.162C429.157 420.904 427.182 412.349 430.313 404.971L588.693 31.8522C591.776 24.5902 599.117 20.0952 606.961 20.6226L607.335 20.651L1011.13 55.9794C1018.99 56.6671 1025.54 62.2593 1027.46 69.8828L1027.55 70.2476L1118.73 465.2Z" stroke="#E4BB25" stroke-width="3"/>
<path opacity="0.484848" d="M1119.61 468.169C1121.25 475.886 1117.82 483.78 1111.09 487.847L1110.77 488.038L760.48 690.275C753.648 694.22 745.08 693.393 739.133 688.251L738.851 688.002L438.267 417.355C432.311 411.992 430.486 403.404 433.745 396.082L598.26 26.575C601.469 19.3675 608.888 15.0006 616.722 15.665L617.095 15.7008L1019.36 57.9798C1027.2 58.8045 1033.65 64.51 1035.44 72.1656L1035.52 72.5323L1119.61 468.169Z" stroke="#E4BB25" stroke-width="3"/>
<path opacity="0.494949" d="M1120.4 471.075C1121.91 478.82 1118.34 486.652 1111.54 490.601L1111.21 490.786L758.208 686.46C751.307 690.285 742.755 689.308 736.898 684.062L736.622 683.809L441.439 408.547C435.578 403.081 433.902 394.463 437.289 387.199L607.863 21.4032C611.197 14.253 618.69 10.0163 626.511 10.8171L626.884 10.8594L1027.49 60.0474C1035.32 61.0089 1041.66 66.826 1043.32 74.5117L1043.39 74.8797L1120.4 471.075Z" stroke="#E4BB25" stroke-width="3"/>
<path opacity="0.50505" d="M1121.11 473.912C1122.48 481.682 1118.77 489.45 1111.9 493.28L1111.57 493.459L755.971 682.537C749.005 686.241 740.47 685.115 734.706 679.768L734.434 679.511L444.723 399.74C438.958 394.173 437.433 385.526 440.946 378.322L617.499 16.3363C620.957 9.24548 628.523 5.14093 636.329 6.07823L636.701 6.12609L1035.53 62.1777C1043.34 63.2758 1049.58 69.2032 1051.1 76.917L1051.17 77.2854L1121.11 473.912Z" stroke="#E4BB25" stroke-width="3"/>
<path opacity="0.515152" d="M1121.72 476.682C1122.96 484.474 1119.11 492.177 1112.18 495.886L1111.85 496.06L753.771 678.51C746.741 682.091 738.228 680.817 732.558 675.37L732.291 675.108L448.118 390.936C442.451 385.269 441.078 376.596 444.716 369.455L627.166 11.3768C630.748 4.34734 638.384 0.37523 646.173 1.44887L646.543 1.5041L1043.48 64.3715C1051.27 65.6058 1057.41 71.6412 1058.79 79.3803L1058.85 79.7498L1121.72 476.682Z" stroke="#E4BB25" stroke-width="3"/>
<path opacity="0.525253" d="M1122.25 479.383C1123.35 487.196 1119.37 494.83 1112.38 498.418L1112.04 498.586L751.61 674.38C744.519 677.839 736.03 676.414 730.456 670.87L730.193 670.603L451.624 382.137C446.056 376.372 444.834 367.677 448.597 360.6L636.862 6.52546C640.566 -0.440479 648.271 -4.27929 656.039 -3.0701L656.409 -3.00841L1051.33 66.6271C1059.1 67.9972 1065.13 74.1389 1066.38 81.9009L1066.44 82.2714L1122.25 479.383Z" stroke="#E4BB25" stroke-width="3"/>
<path opacity="0.535354" d="M1122.69 482.014C1123.65 489.845 1119.54 497.408 1112.49 500.873L1112.15 501.035L749.49 670.145C742.34 673.479 733.877 671.909 728.4 666.268L728.141 665.996L455.24 373.345C449.774 367.483 448.704 358.769 452.59 351.759L646.586 1.78017C650.411 -5.1201 658.181 -8.82302 665.928 -7.47838L666.297 -7.4111L1059.09 68.9406C1066.84 70.446 1072.76 76.6924 1073.88 84.4752L1073.93 84.8462L1122.69 482.014Z" stroke="#E4BB25" stroke-width="3"/>
<path opacity="0.545455" d="M1123.05 484.572C1123.88 492.418 1119.64 499.909 1112.52 503.25L1112.18 503.406L747.413 665.809C740.206 669.018 731.772 667.3 726.394 661.564L726.14 661.288L458.968 364.562C453.605 358.606 452.686 349.873 456.693 342.933L656.336 -2.85765C660.28 -9.68983 668.114 -13.2566 675.836 -11.7772L676.203 -11.7035L1066.76 71.3132C1074.48 72.9535 1080.29 79.3013 1081.27 87.1022L1081.31 87.4745L1123.05 484.572Z" stroke="#E4BB25" stroke-width="3"/>
<path opacity="0.555556" d="M1123.33 487.057C1124.02 494.916 1119.64 502.332 1112.47 505.549L1112.13 505.699L745.38 661.374C738.118 664.456 729.715 662.59 724.438 656.761L724.19 656.481L462.803 355.79C457.545 349.742 456.78 340.996 460.908 334.126L666.108 -7.38587C670.172 -14.1485 678.067 -17.5788 685.762 -15.9646L686.128 -15.8837L1074.34 73.7411C1082.02 75.5159 1087.72 81.9642 1088.57 89.7809L1088.6 90.1539L1123.33 487.057Z" stroke="#E4BB25" stroke-width="3"/>
<path opacity="0.565657" d="M1123.52 489.466C1124.07 497.336 1119.57 504.675 1112.35 507.766L1112 507.91L743.393 656.836C736.078 659.792 727.709 657.78 722.535 651.86L722.291 651.575L466.749 347.032C461.597 340.892 460.985 332.133 465.232 325.337L675.903 -11.8081C680.084 -18.4988 688.038 -21.7909 695.703 -20.0425L696.068 -19.9552L1081.81 76.2218C1089.47 78.1304 1095.06 84.6773 1095.76 92.5075L1095.79 92.8819L1123.52 489.466Z" stroke="#E4BB25" stroke-width="3"/>
<path opacity="0.575758" d="M1123.64 491.802C1124.05 499.681 1119.43 506.939 1112.14 509.904L1111.79 510.041L741.455 652.201C734.089 655.029 725.756 652.871 720.686 646.862L720.448 646.573L470.803 338.288C465.76 332.06 465.3 323.291 469.665 316.57L685.717 -16.1212C690.014 -22.7377 698.024 -25.8895 705.657 -24.008L706.021 -23.9151L1089.19 78.756C1096.81 80.7979 1102.29 87.4413 1102.86 95.2826L1102.88 95.6575L1123.64 491.802Z" stroke="#E4BB25" stroke-width="3"/>
<path opacity="0.585859" d="M1123.68 494.058C1123.95 501.943 1119.2 509.119 1111.87 511.956L1111.52 512.088L739.565 647.468C732.151 650.166 723.857 647.863 718.893 641.766L718.659 641.473L474.966 329.56C470.032 323.245 469.725 314.47 474.207 307.825L695.549 -20.327C699.961 -26.8675 708.024 -29.8794 715.623 -27.8646L715.985 -27.7646L1096.47 81.3387C1104.06 83.5134 1109.41 90.2513 1109.85 98.1013L1109.86 98.4766L1123.68 494.058Z" stroke="#E4BB25" stroke-width="3"/>
<path opacity="0.59596" d="M1123.64 496.237C1123.78 504.125 1118.9 511.217 1111.52 513.926L1111.17 514.052L737.726 642.637C730.266 645.205 722.014 642.759 717.157 636.576L716.928 636.279L479.237 320.851C474.414 314.451 474.26 305.672 478.857 299.107L705.395 -24.4234C709.921 -30.8859 718.036 -33.7571 725.599 -31.6103L725.959 -31.504L1103.66 83.9702C1111.2 86.2769 1116.44 93.1078 1116.74 100.964L1116.75 101.339L1123.64 496.237Z" stroke="#E4BB25" stroke-width="3"/>
<path opacity="0.606061" d="M1123.53 498.335C1123.53 506.225 1118.53 513.231 1111.1 515.81L1110.74 515.93L735.94 637.711C728.437 640.149 720.229 637.558 715.48 631.292L715.256 630.99L483.615 312.163C478.904 305.679 478.904 296.9 483.615 290.416L715.256 -28.4119C719.894 -34.7946 728.057 -37.523 735.582 -35.2444L735.94 -35.1326L1110.74 86.6484C1118.25 89.0864 1123.36 96.0077 1123.52 103.868L1123.53 104.243L1123.53 498.335Z" stroke="#E4BB25" stroke-width="3"/>
<path opacity="0.616162" d="M1123.34 500.353C1123.2 508.242 1118.08 515.161 1110.61 517.61L1110.25 517.722L734.208 632.691C726.664 634.998 718.502 632.264 713.864 625.916L713.645 625.611L488.1 303.498C483.503 296.933 483.656 288.155 488.479 281.754L725.129 -32.2917C729.877 -38.5924 738.087 -41.1781 745.571 -38.7684L745.927 -38.6504L1117.73 89.3716C1125.19 91.9401 1130.19 98.9498 1130.21 106.812L1130.2 107.187L1123.34 500.353Z" stroke="#E4BB25" stroke-width="3"/>
<path opacity="0.626263" d="M1123.08 502.289C1122.81 510.174 1117.57 517.002 1110.05 519.32L1109.69 519.427L732.532 627.576C724.949 629.751 716.835 626.875 712.308 620.447L712.096 620.138L492.69 294.856C488.208 288.211 488.515 279.437 493.449 273.121L735.011 -36.064C739.868 -42.281 748.122 -44.7235 755.563 -42.1837L755.916 -42.0587L1124.62 92.1364C1132.03 94.8348 1136.9 101.931 1136.79 109.792L1136.78 110.166L1123.08 502.289Z" stroke="#E4BB25" stroke-width="3"/>
<path opacity="0.636364" d="M1122.76 504.141C1122.34 512.02 1116.98 518.755 1109.43 520.942L1109.07 521.043L730.914 622.369C723.293 624.411 715.231 621.394 710.818 614.888L710.61 614.576L497.386 286.24C493.021 279.518 493.481 270.75 498.524 264.521L744.901 -39.7283C749.866 -45.8597 758.162 -48.1579 765.557 -45.4884L765.908 -45.3573L1131.4 94.9427C1138.77 97.7701 1143.52 104.949 1143.26 112.807L1143.25 113.182L1122.76 504.141Z" stroke="#E4BB25" stroke-width="3"/>
<path opacity="0.646465" d="M1122.36 505.91C1121.81 513.781 1116.33 520.421 1108.74 522.476L1108.38 522.57L729.354 617.073C721.699 618.982 713.691 615.824 709.391 609.242L709.19 608.926L502.187 277.652C497.94 270.855 498.552 262.096 503.704 255.957L754.797 -43.2839C759.868 -49.3274 768.202 -51.4796 775.549 -48.6819L775.899 -48.5454L1138.09 97.7884C1145.4 100.744 1150.02 108.005 1149.63 115.857L1149.61 116.231L1122.36 505.91Z" stroke="#E4BB25" stroke-width="3"/>
<path opacity="0.656566" d="M1121.9 507.593C1121.21 515.453 1115.62 521.997 1108 523.919L1107.63 524.007L727.855 611.686C720.168 613.46 712.216 610.164 708.032 603.507L707.835 603.188L507.092 269.094C502.964 262.224 503.729 253.477 508.987 247.428L764.696 -46.7318C769.872 -52.6858 778.243 -54.6925 785.54 -51.7667L785.887 -51.6234L1144.67 100.67C1151.93 103.752 1156.43 111.093 1155.9 118.938L1155.87 119.312L1121.9 507.593Z" stroke="#E4BB25" stroke-width="3"/>
<path opacity="0.666667" d="M1121.37 509.193C1120.55 517.039 1114.84 523.484 1107.19 525.273L1106.82 525.355L726.417 606.212C718.7 607.852 710.808 604.417 706.741 597.689L706.55 597.365L512.1 260.568C508.093 253.627 509.01 244.895 514.372 238.939L774.597 -50.0698C779.876 -55.9328 788.281 -57.7935 795.526 -54.741L795.87 -54.5916L1151.15 103.588C1158.36 106.797 1162.72 114.216 1162.06 122.05L1162.02 122.423L1121.37 509.193Z" stroke="#E4BB25" stroke-width="3"/>
<path opacity="0.676768" d="M1120.78 510.703C1119.82 518.533 1114 524.878 1106.32 526.533L1105.95 526.608L725.043 600.649C717.299 602.154 709.467 598.582 705.518 591.784L705.333 591.458L517.21 252.074C513.325 245.065 514.395 236.351 519.86 230.489L784.5 -53.3019C789.88 -59.0719 798.316 -60.7857 805.507 -57.607L805.848 -57.4517L1157.53 106.539C1164.68 109.873 1168.91 117.366 1168.11 125.187L1168.07 125.56L1120.78 510.703Z" stroke="#E4BB25" stroke-width="3"/>
<path opacity="0.686869" d="M1120.13 512.125C1119.03 519.938 1113.1 526.18 1105.39 527.701L1105.02 527.769L723.734 595.001C715.964 596.371 708.196 592.663 704.366 585.796L704.187 585.467L522.422 243.617C518.659 236.541 519.882 227.846 525.449 222.081L794.4 -56.4259C799.88 -62.101 808.344 -63.6668 815.478 -60.363L815.817 -60.2025L1163.8 109.521C1170.89 112.98 1175 120.546 1174.06 128.352L1174.01 128.724L1120.13 512.125Z" stroke="#E4BB25" stroke-width="3"/>
<path opacity="0.69697" d="M1119.42 513.459C1118.18 521.252 1112.15 527.389 1104.41 528.775L1104.04 528.838L722.491 589.27C714.698 590.504 706.996 586.66 703.287 579.728L703.114 579.396L527.735 235.196C524.096 228.055 525.47 219.383 531.137 213.716L804.295 -59.4422C809.873 -65.0208 818.364 -66.4391 825.44 -63.0116L825.775 -62.8444L1169.98 112.534C1177 116.116 1180.98 123.752 1179.9 131.541L1179.85 131.912L1119.42 513.459Z" stroke="#E4BB25" stroke-width="3"/>
<path opacity="0.707071" d="M1118.65 514.702C1117.28 522.471 1111.14 528.504 1103.37 529.754L1103 529.809L721.315 583.453C713.502 584.551 705.868 580.574 702.28 573.578L702.112 573.243L533.147 226.812C529.634 219.609 531.159 210.962 536.924 205.395L814.185 -62.3534C819.86 -67.8339 828.374 -69.104 835.389 -65.5532L835.722 -65.3802L1176.04 115.572C1183.01 119.276 1186.85 126.981 1185.64 134.75L1185.58 135.119L1118.65 514.702Z" stroke="#E4BB25" stroke-width="3"/>
<path opacity="0.717172" d="M1117.82 515.856C1116.31 523.601 1110.07 529.525 1102.29 530.639L1101.91 530.689L720.208 577.556C712.378 578.518 704.814 574.408 701.349 567.351L701.187 567.013L538.659 218.47C535.272 211.207 536.947 202.588 542.808 197.122L824.068 -65.1566C829.837 -70.5371 838.372 -71.6575 845.323 -67.9852L845.654 -67.8072L1182.01 118.638C1188.91 122.463 1192.61 130.234 1191.27 137.98L1191.2 138.349L1117.82 515.856Z" stroke="#E4BB25" stroke-width="3"/>
<path opacity="0.727273" d="M1116.94 516.917C1115.3 524.634 1108.95 530.448 1101.15 531.427L1100.78 531.469L719.17 571.578C711.324 572.402 703.834 568.161 700.493 561.045L700.337 560.703L544.269 210.169C541.009 202.847 542.834 194.26 548.79 188.897L833.941 -67.8547C839.804 -73.1336 848.357 -74.1052 855.243 -70.3119L855.569 -70.1275L1187.87 121.726C1194.7 125.671 1198.27 133.505 1196.79 141.227L1196.72 141.594L1116.94 516.917Z" stroke="#E4BB25" stroke-width="3"/>
<path opacity="0.737374" d="M1116 517.887C1114.23 525.574 1107.78 531.276 1099.96 532.119L1099.59 532.155L718.205 565.522C710.346 566.209 702.93 561.839 699.714 554.665L699.563 554.321L549.976 201.912C546.844 194.535 548.819 185.98 554.867 180.722L843.802 -70.4453C849.757 -75.6214 858.325 -76.4442 865.145 -72.531L865.468 -72.3409L1193.63 124.837C1200.39 128.901 1203.82 136.795 1202.21 144.49L1202.13 144.856L1116 517.887Z" stroke="#E4BB25" stroke-width="3"/>
<path opacity="0.747475" d="M1115.02 518.762C1113.11 526.417 1106.56 532.005 1098.73 532.711L1098.36 532.741L717.312 559.387C709.442 559.937 702.104 555.437 699.013 548.209L698.869 547.862L555.777 193.699C552.775 186.268 554.899 177.748 561.039 172.597L853.65 -72.9337C859.694 -78.0049 868.276 -78.6779 875.026 -74.6466L875.346 -74.4508L1199.28 127.967C1205.97 132.147 1209.26 140.101 1207.51 147.766L1207.43 148.131L1115.02 518.762Z" stroke="#E4BB25" stroke-width="3"/>
<path opacity="0.757576" d="M1113.98 519.546C1111.94 527.167 1105.3 532.64 1097.46 533.209L1097.08 533.232L716.493 553.179C708.614 553.591 701.356 548.964 698.392 541.682L698.254 541.333L561.675 185.535C558.803 178.053 561.076 169.572 567.304 164.528L863.484 -75.3138C869.616 -80.2787 878.207 -80.8014 884.886 -76.6528L885.203 -76.4521L1204.83 131.117C1211.45 135.413 1214.6 143.423 1212.72 151.057L1212.62 151.42L1113.98 519.546Z" stroke="#E4BB25" stroke-width="3"/>
<path opacity="0.767677" d="M1112.9 520.234C1110.73 527.818 1103.99 533.175 1096.14 533.607L1095.76 533.623L715.749 546.894C707.865 547.17 700.688 542.416 697.851 535.084L697.719 534.733L567.667 177.417C564.926 169.886 567.346 161.446 573.662 156.512L873.3 -77.5912C879.516 -82.4484 888.117 -82.8213 894.722 -78.557L895.035 -78.3503L1210.27 134.281C1216.81 138.693 1219.83 146.756 1217.81 154.356L1217.71 154.718L1112.9 520.234Z" stroke="#E4BB25" stroke-width="3"/>
<path opacity="0.777778" d="M1111.77 520.826C1109.47 528.371 1102.64 533.609 1094.78 533.905L1094.4 533.915L715.081 540.536C707.193 540.674 700.1 535.796 697.392 528.415L697.266 528.062L573.752 169.35C571.142 161.772 573.71 153.375 580.11 148.552L883.097 -79.7653C889.398 -84.5133 898.004 -84.7363 904.533 -80.3571L904.842 -80.1449L1215.61 137.46C1222.08 141.985 1224.95 150.099 1222.8 157.663L1222.69 158.023L1111.77 520.826Z" stroke="#E4BB25" stroke-width="3"/>
<path opacity="0.787879" d="M1110.6 521.323C1108.16 528.826 1101.24 533.944 1093.38 534.103L1093.01 534.106L714.49 534.107C706.601 534.107 699.595 529.106 697.015 521.679L696.896 521.324L579.928 161.333C577.451 153.711 580.164 145.361 586.648 140.65L892.874 -81.8362C899.257 -86.4735 907.864 -86.5458 914.316 -82.0533L914.623 -81.8363L1220.85 140.65C1227.23 145.287 1229.96 153.451 1227.68 160.976L1227.57 161.334L1110.6 521.323Z" stroke="#E4BB25" stroke-width="3"/>
<path opacity="0.79798" d="M1109.39 521.725C1106.82 529.185 1099.81 534.182 1091.95 534.203L1091.57 534.2L713.978 527.609C706.09 527.471 699.172 522.349 696.723 514.879L696.609 514.521L586.196 153.371C583.853 145.707 586.711 137.406 593.275 132.809L902.629 -83.8034C909.092 -88.3283 917.699 -88.2503 924.072 -83.6462L924.373 -83.4233L1225.98 143.852C1232.28 148.6 1234.87 156.811 1232.46 164.295L1232.34 164.65L1109.39 521.725Z" stroke="#E4BB25" stroke-width="3"/>
<path opacity="0.808081" d="M1108.13 522.03C1105.43 529.443 1098.34 534.317 1090.48 534.201L1090.1 534.191L713.546 521.041C705.661 520.766 698.834 515.524 696.515 508.012L696.408 507.652L592.552 145.463C590.342 137.759 593.346 129.508 599.99 125.027L912.359 -85.669C918.9 -90.0808 927.505 -89.8532 933.796 -85.1382L934.094 -84.9101L1231.01 147.061C1237.22 151.919 1239.66 160.173 1237.12 167.614L1237 167.967L1108.13 522.03Z" stroke="#E4BB25" stroke-width="3"/>
<path opacity="0.818182" d="M1106.84 522.238C1104.01 529.603 1096.83 534.352 1088.97 534.099L1088.6 534.082L713.194 514.409C705.315 513.996 698.58 508.635 696.393 501.083L696.293 500.722L598.997 137.611C596.923 129.869 600.069 121.672 606.791 117.307L922.064 -87.4334C928.68 -91.7302 937.28 -91.3523 943.489 -86.5285L943.782 -86.2952L1235.93 150.279C1242.06 155.244 1244.36 163.54 1241.69 170.935L1241.56 171.286L1106.84 522.238Z" stroke="#E4BB25" stroke-width="3"/>
<path opacity="0.828283" d="M1105.51 522.347C1102.55 529.662 1095.29 534.285 1087.44 533.894L1087.06 533.872L712.923 507.71C705.053 507.159 698.412 501.682 696.357 494.093L696.263 493.73L605.529 129.816C603.59 122.04 606.88 113.899 613.677 109.652L931.741 -89.097C938.432 -93.2776 947.023 -92.7492 953.146 -87.8178L953.436 -87.58L1240.74 153.501C1246.79 158.572 1248.94 166.906 1246.14 174.254L1246.01 174.603L1105.51 522.347Z" stroke="#E4BB25" stroke-width="3"/>
<path opacity="0.838384" d="M1104.14 522.359C1101.06 529.621 1093.72 534.117 1085.88 533.59L1085.5 533.56L712.736 500.948C704.876 500.261 698.332 494.668 696.41 487.045L696.322 486.68L612.148 122.082C610.345 114.272 613.776 106.19 620.646 102.062L941.388 -90.659C948.151 -94.7225 956.732 -94.0448 962.768 -89.007L963.053 -88.7636L1245.46 156.726C1251.41 161.902 1253.42 170.273 1250.49 177.57L1250.35 177.917L1104.14 522.359Z" stroke="#E4BB25" stroke-width="3"/>
<path opacity="0.848485" d="M1102.74 522.272C1099.53 529.479 1092.12 533.846 1084.28 533.182L1083.91 533.146L712.631 494.124C704.784 493.299 698.34 487.593 696.551 479.937L696.469 479.571L618.851 114.405C617.184 106.565 620.755 98.5445 627.696 94.5371L951.004 -92.125C957.836 -96.0698 966.405 -95.2423 972.352 -90.1001L972.633 -89.8518L1250.07 159.951C1255.93 165.23 1257.79 173.634 1254.74 180.88L1254.59 181.224L1102.74 522.272Z" stroke="#E4BB25" stroke-width="3"/>
<path opacity="0.858586" d="M1101.31 522.087C1097.98 529.237 1090.49 533.474 1082.67 532.673L1082.29 532.631L712.611 487.239C704.78 486.278 698.436 480.461 696.781 472.775L696.705 472.407L625.638 106.792C624.108 98.9246 627.818 90.9675 634.828 87.0818L960.588 -93.4899C967.488 -97.3147 976.04 -96.3375 981.897 -91.0922L982.174 -90.8395L1254.57 163.176C1260.34 168.557 1262.06 176.993 1258.88 184.184L1258.72 184.525L1101.31 522.087Z" stroke="#E4BB25" stroke-width="3"/>
<path opacity="0.868687" d="M1099.86 521.802C1096.4 528.893 1088.83 532.998 1081.03 532.061L1080.65 532.012L712.676 480.296C704.864 479.198 698.622 473.271 697.101 465.558L697.032 465.189L632.505 99.2409C631.113 91.348 634.962 83.4564 642.039 79.6938L970.137 -94.7589C977.102 -98.4626 985.636 -97.3361 991.4 -91.9897L991.672 -91.7318L1258.97 166.398C1264.65 171.879 1266.22 180.343 1262.91 187.477L1262.75 187.816L1099.86 521.802Z" stroke="#E4BB25" stroke-width="3"/>
<path opacity="0.878788" d="M1098.37 521.416C1094.79 528.446 1087.15 532.418 1079.36 531.345L1078.99 531.29L712.827 473.296C705.035 472.061 698.896 466.026 697.511 458.287L697.449 457.917L639.454 91.7539C638.201 83.8378 642.187 76.0147 649.328 72.3761L979.649 -95.9307C986.678 -99.5124 995.191 -98.2378 1000.86 -92.7912L1001.13 -92.5286L1263.27 169.615C1268.85 175.194 1270.27 183.684 1266.84 190.76L1266.68 191.096L1098.37 521.416Z" stroke="#E4BB25" stroke-width="3"/>
<path opacity="0.888889" d="M1096.86 520.933C1093.15 527.899 1085.45 531.737 1077.68 530.528L1077.31 530.466L713.066 466.24C705.296 464.87 699.265 458.729 698.014 450.967L697.958 450.596L646.483 84.3326C645.368 76.3961 649.49 68.6435 656.694 65.1302L989.124 -97.0068C996.215 -100.465 1004.7 -99.042 1010.28 -93.4977L1010.54 -93.2304L1267.47 172.827C1272.95 178.502 1274.22 187.016 1270.67 194.031L1270.5 194.363L1096.86 520.933Z" stroke="#E4BB25" stroke-width="3"/>
<path opacity="0.89899" d="M1095.32 520.348C1091.5 527.248 1083.72 530.952 1075.98 529.607L1075.61 529.539L713.393 459.131C705.648 457.626 699.724 451.38 698.61 443.597L698.56 443.226L653.591 76.9789C652.614 69.024 656.871 61.3447 664.135 57.9576L998.559 -97.9874C1005.71 -101.321 1014.17 -99.7499 1019.65 -94.1091L1019.91 -93.8377L1271.56 176.03C1276.94 181.8 1278.06 190.335 1274.39 197.286L1274.21 197.616L1095.32 520.348Z" stroke="#E4BB25" stroke-width="3"/>
<path opacity="0.909091" d="M1093.76 519.662C1089.82 526.494 1081.98 530.062 1074.26 528.582L1073.89 528.508L713.806 451.969C706.089 450.329 700.275 443.981 699.296 436.18L699.254 435.808L660.774 69.692C659.936 61.7213 664.326 54.1178 671.647 50.8579L1007.95 -98.8748C1015.16 -102.084 1023.59 -100.365 1028.97 -94.6295L1029.23 -94.3532L1275.55 179.222C1280.83 185.085 1281.8 193.638 1278.01 200.524L1277.83 200.851L1093.76 519.662Z" stroke="#E4BB25" stroke-width="3"/>
<path opacity="0.919192" d="M1092.18 518.878C1088.12 525.64 1080.23 529.071 1072.53 527.456L1072.16 527.375L714.311 444.759C706.623 442.985 700.921 436.536 700.079 428.719L700.042 428.345L668.032 62.4764C667.334 54.4923 671.856 46.9662 679.234 43.8346L1017.3 -99.668C1024.57 -102.751 1032.97 -100.885 1038.25 -95.0564L1038.5 -94.7758L1279.44 182.404C1284.62 188.358 1285.44 196.927 1281.53 203.746L1281.34 204.07L1092.18 518.878Z" stroke="#E4BB25" stroke-width="3"/>
<path opacity="0.929293" d="M1090.59 517.992C1086.41 524.683 1078.45 527.975 1070.79 526.227L1070.42 526.139L714.905 437.498C707.25 435.59 701.661 429.043 700.955 421.213L700.925 420.839L675.366 55.3305C674.807 47.3354 679.46 39.8894 686.891 36.8871L1026.61 -100.369C1033.93 -103.325 1042.3 -101.312 1047.47 -95.3926L1047.71 -95.108L1283.23 185.571C1288.3 191.615 1288.98 200.197 1284.95 206.947L1284.75 207.266L1090.59 517.992Z" stroke="#E4BB25" stroke-width="3"/>
<path opacity="0.939394" d="M1088.97 517.006C1084.68 523.622 1076.67 526.775 1069.03 524.893L1068.67 524.8L715.589 430.192C707.968 428.15 702.495 421.507 701.926 413.666L701.902 413.291L682.771 48.2555C682.352 40.2519 687.134 32.8881 694.616 30.0159L1035.87 -100.981C1043.24 -103.808 1051.57 -101.65 1056.64 -95.6406L1056.88 -95.3514L1286.92 188.723C1291.88 194.855 1292.41 203.446 1288.26 210.125L1288.06 210.442L1088.97 517.006Z" stroke="#E4BB25" stroke-width="3"/>
<path opacity="0.949495" d="M1087.34 515.917C1082.93 522.457 1074.87 525.47 1067.27 523.455L1066.91 523.355L716.364 422.838C708.78 420.664 703.424 413.925 702.991 406.075L702.975 405.701L690.248 41.2524C689.968 33.2427 694.878 25.9636 702.409 23.2224L1045.09 -101.502C1052.5 -104.2 1060.8 -101.898 1065.76 -95.8008L1065.99 -95.5075L1290.51 191.857C1295.36 198.074 1295.74 206.673 1291.47 213.278L1291.27 213.592L1087.34 515.917Z" stroke="#E4BB25" stroke-width="3"/>
<path opacity="0.959596" d="M1085.7 514.73C1081.18 521.193 1073.06 524.064 1065.5 521.917L1065.14 521.811L717.231 415.445C709.687 413.138 704.449 406.307 704.154 398.45L704.144 398.076L697.794 34.3263C697.655 26.3129 702.691 19.1206 710.269 16.5113L1054.25 -101.932C1061.71 -104.501 1069.97 -102.054 1074.82 -95.8708L1075.05 -95.5735L1293.99 194.974C1298.74 201.275 1298.96 209.88 1294.59 216.409L1294.37 216.719L1085.7 514.73Z" stroke="#E4BB25" stroke-width="3"/>
<path opacity="0.969697" d="M1084.05 513.441C1079.41 519.823 1071.25 522.552 1063.73 520.274L1063.37 520.161L718.192 408.007C710.688 405.569 705.57 398.648 705.412 390.788L705.408 390.413L705.409 27.4724C705.409 19.458 710.569 12.3549 718.191 9.87811L1063.37 -102.277C1070.87 -104.715 1079.08 -102.123 1083.83 -95.8571L1084.05 -95.5562L1297.38 198.069C1302.02 204.451 1302.09 213.059 1297.6 219.511L1297.38 219.817L1084.05 513.441Z" stroke="#E4BB25" stroke-width="3"/>
<path opacity="0.979798" d="M1082.39 512.053C1077.64 518.354 1069.43 520.94 1061.95 518.53L1061.59 518.412L719.245 400.532C711.786 397.964 706.789 390.954 706.768 383.092L706.771 382.717L713.089 20.6979C713.229 12.6846 718.514 5.67242 726.178 3.32909L1072.43 -102.531C1079.98 -104.838 1088.14 -102.104 1092.78 -95.7558L1092.99 -95.4507L1300.67 201.143C1305.2 207.606 1305.12 216.214 1300.52 222.586L1300.29 222.888L1082.39 512.053Z" stroke="#E4BB25" stroke-width="3"/>
<path opacity="0.989899" d="M1080.72 510.563C1075.86 516.78 1067.61 519.222 1060.17 516.682L1059.82 516.557L720.391 393.016C712.978 390.318 708.104 383.223 708.221 375.362L708.23 374.986L720.835 13.9973C721.115 5.98769 726.521 -0.931292 734.225 -3.14043L1081.44 -102.703C1089.03 -104.878 1097.14 -102.002 1101.67 -95.5737L1101.88 -95.2649L1303.86 204.191C1308.28 210.732 1308.05 219.337 1303.33 225.629L1303.1 225.926L1080.72 510.563Z" stroke="#E4BB25" stroke-width="3"/>
<path d="M1079.05 508.972C1074.08 515.103 1065.79 517.401 1058.39 514.732L1058.04 514.601L721.631 385.465C714.266 382.638 709.517 375.459 709.77 367.601L709.786 367.226L728.645 7.37617C729.065 -0.627496 734.59 -7.45095 742.332 -9.5253L1090.4 -102.789C1098.02 -104.831 1106.08 -101.814 1110.49 -95.3076L1110.7 -94.9954L1306.96 207.214C1311.26 213.831 1310.88 222.43 1306.05 228.638L1305.82 228.932L1079.05 508.972Z" stroke="#E4BB25" stroke-width="3"/>
</svg>
