<svg xmlns="http://www.w3.org/2000/svg" xmlns:xlink="http://www.w3.org/1999/xlink" width="422" zoomAndPan="magnify" viewBox="0 0 316.5 157.5" height="210" preserveAspectRatio="xMidYMid meet" version="1.0"><defs><g/><clipPath id="ddf79f4d9d"><path d="M 222 40 L 297 40 L 297 139 L 222 139 Z M 222 40 " clip-rule="nonzero"/></clipPath><clipPath id="43e4c86e42"><path d="M 268.078125 156.3125 L 158.9375 109.210938 L 206.039062 0.0703125 L 315.179688 47.171875 Z M 268.078125 156.3125 " clip-rule="nonzero"/></clipPath><clipPath id="1c65e6fcd4"><path d="M 315.234375 47.042969 L 206.09375 -0.0585938 L 158.992188 109.082031 L 268.132812 156.183594 Z M 315.234375 47.042969 " clip-rule="nonzero"/></clipPath><clipPath id="a3cabf6f70"><path d="M 231 20 L 283 20 L 283 131 L 231 131 Z M 231 20 " clip-rule="nonzero"/></clipPath><clipPath id="f46665d807"><path d="M 268.078125 156.3125 L 158.9375 109.210938 L 206.039062 0.0703125 L 315.179688 47.171875 Z M 268.078125 156.3125 " clip-rule="nonzero"/></clipPath><clipPath id="e0fa448032"><path d="M 315.234375 47.042969 L 206.09375 -0.0585938 L 158.992188 109.082031 L 268.132812 156.183594 Z M 315.234375 47.042969 " clip-rule="nonzero"/></clipPath><clipPath id="692e5e1e83"><path d="M 197 33 L 271 33 L 271 111 L 197 111 Z M 197 33 " clip-rule="nonzero"/></clipPath><clipPath id="8f1e768f3b"><path d="M 268.078125 156.3125 L 158.9375 109.210938 L 206.039062 0.0703125 L 315.179688 47.171875 Z M 268.078125 156.3125 " clip-rule="nonzero"/></clipPath><clipPath id="521c02569c"><path d="M 315.234375 47.042969 L 206.09375 -0.0585938 L 158.992188 109.082031 L 268.132812 156.183594 Z M 315.234375 47.042969 " clip-rule="nonzero"/></clipPath><clipPath id="8e476a3c80"><path d="M 209 51 L 264 51 L 264 94 L 209 94 Z M 209 51 " clip-rule="nonzero"/></clipPath><clipPath id="20d179e3a1"><path d="M 268.078125 156.3125 L 158.9375 109.210938 L 206.039062 0.0703125 L 315.179688 47.171875 Z M 268.078125 156.3125 " clip-rule="nonzero"/></clipPath><clipPath id="343c080322"><path d="M 315.234375 47.042969 L 206.09375 -0.0585938 L 158.992188 109.082031 L 268.132812 156.183594 Z M 315.234375 47.042969 " clip-rule="nonzero"/></clipPath><clipPath id="04ea6cad95"><path d="M 220 17 L 231 17 L 231 28 L 220 28 Z M 220 17 " clip-rule="nonzero"/></clipPath><clipPath id="892bbf3025"><path d="M 268.078125 156.3125 L 158.9375 109.210938 L 206.039062 0.0703125 L 315.179688 47.171875 Z M 268.078125 156.3125 " clip-rule="nonzero"/></clipPath><clipPath id="2623f0f21f"><path d="M 315.234375 47.042969 L 206.09375 -0.0585938 L 158.992188 109.082031 L 268.132812 156.183594 Z M 315.234375 47.042969 " clip-rule="nonzero"/></clipPath><clipPath id="cc90e93ab3"><path d="M 187 40 L 198 40 L 198 51 L 187 51 Z M 187 40 " clip-rule="nonzero"/></clipPath><clipPath id="9e32d070a9"><path d="M 268.078125 156.3125 L 158.9375 109.210938 L 206.039062 0.0703125 L 315.179688 47.171875 Z M 268.078125 156.3125 " clip-rule="nonzero"/></clipPath><clipPath id="ffd9fac749"><path d="M 315.234375 47.042969 L 206.09375 -0.0585938 L 158.992188 109.082031 L 268.132812 156.183594 Z M 315.234375 47.042969 " clip-rule="nonzero"/></clipPath><clipPath id="d5220940b0"><path d="M 197 52 L 208 52 L 208 63 L 197 63 Z M 197 52 " clip-rule="nonzero"/></clipPath><clipPath id="cb23a9a23d"><path d="M 268.078125 156.3125 L 158.9375 109.210938 L 206.039062 0.0703125 L 315.179688 47.171875 Z M 268.078125 156.3125 " clip-rule="nonzero"/></clipPath><clipPath id="a9c961b22c"><path d="M 315.234375 47.042969 L 206.09375 -0.0585938 L 158.992188 109.082031 L 268.132812 156.183594 Z M 315.234375 47.042969 " clip-rule="nonzero"/></clipPath><clipPath id="8b322aed21"><path d="M 210 25 L 217 25 L 217 31 L 210 31 Z M 210 25 " clip-rule="nonzero"/></clipPath><clipPath id="2099388849"><path d="M 268.078125 156.3125 L 158.9375 109.210938 L 206.039062 0.0703125 L 315.179688 47.171875 Z M 268.078125 156.3125 " clip-rule="nonzero"/></clipPath><clipPath id="f09a25e982"><path d="M 315.234375 47.042969 L 206.09375 -0.0585938 L 158.992188 109.082031 L 268.132812 156.183594 Z M 315.234375 47.042969 " clip-rule="nonzero"/></clipPath><clipPath id="db9fed9c95"><path d="M 186 55 L 193 55 L 193 61 L 186 61 Z M 186 55 " clip-rule="nonzero"/></clipPath><clipPath id="1ed366cd0a"><path d="M 268.078125 156.3125 L 158.9375 109.210938 L 206.039062 0.0703125 L 315.179688 47.171875 Z M 268.078125 156.3125 " clip-rule="nonzero"/></clipPath><clipPath id="4992c9b147"><path d="M 315.234375 47.042969 L 206.09375 -0.0585938 L 158.992188 109.082031 L 268.132812 156.183594 Z M 315.234375 47.042969 " clip-rule="nonzero"/></clipPath><clipPath id="86cb7e9683"><path d="M 263 26 L 269 26 L 269 32 L 263 32 Z M 263 26 " clip-rule="nonzero"/></clipPath><clipPath id="328f1e4026"><path d="M 268.078125 156.3125 L 158.9375 109.210938 L 206.039062 0.0703125 L 315.179688 47.171875 Z M 268.078125 156.3125 " clip-rule="nonzero"/></clipPath><clipPath id="f0ef813751"><path d="M 315.234375 47.042969 L 206.09375 -0.0585938 L 158.992188 109.082031 L 268.132812 156.183594 Z M 315.234375 47.042969 " clip-rule="nonzero"/></clipPath><clipPath id="46e6297e1e"><path d="M 270 30 L 281 30 L 281 41 L 270 41 Z M 270 30 " clip-rule="nonzero"/></clipPath><clipPath id="9c706d0c81"><path d="M 268.078125 156.3125 L 158.9375 109.210938 L 206.039062 0.0703125 L 315.179688 47.171875 Z M 268.078125 156.3125 " clip-rule="nonzero"/></clipPath><clipPath id="0acfc5bf09"><path d="M 315.234375 47.042969 L 206.09375 -0.0585938 L 158.992188 109.082031 L 268.132812 156.183594 Z M 315.234375 47.042969 " clip-rule="nonzero"/></clipPath></defs><g clip-path="url(#ddf79f4d9d)"><g clip-path="url(#43e4c86e42)"><g clip-path="url(#1c65e6fcd4)"><path fill="#e4bb25" d="M 278.925781 40.902344 C 277.238281 42.222656 276.816406 44.628906 277.964844 46.402344 C 288.089844 62.085938 290.371094 82.675781 282.261719 101.464844 C 271.738281 125.855469 246.988281 139.585938 222.519531 136.652344 C 249.972656 143.820312 279.585938 129.496094 291.496094 101.898438 C 300.484375 81.066406 297.050781 58.078125 284.484375 41.585938 C 283.160156 39.84375 280.679688 39.535156 278.925781 40.902344 Z M 278.925781 40.902344 " fill-opacity="1" fill-rule="nonzero"/></g></g></g><g clip-path="url(#a3cabf6f70)"><g clip-path="url(#f46665d807)"><g clip-path="url(#e0fa448032)"><path fill="#00254f" d="M 231.683594 23.738281 C 231.210938 25.78125 232.40625 27.835938 234.414062 28.4375 C 252.144531 33.742188 266.921875 47.628906 272.535156 66.707031 C 279.820312 91.46875 269.390625 117.242188 248.644531 130.4375 C 274.367188 118.515625 288.179688 89.242188 279.933594 61.222656 C 273.710938 40.074219 256.535156 25.128906 236.410156 20.753906 C 234.28125 20.289062 232.175781 21.617188 231.683594 23.738281 Z M 231.683594 23.738281 " fill-opacity="1" fill-rule="nonzero"/></g></g></g><g clip-path="url(#692e5e1e83)"><g clip-path="url(#8f1e768f3b)"><g clip-path="url(#521c02569c)"><path fill="#e4bb25" d="M 197.511719 41.804688 C 198.183594 43.523438 200.074219 44.421875 201.832031 43.859375 C 217.34375 38.894531 234.96875 41.632812 248.527344 52.691406 C 266.128906 67.046875 271.367188 90.945312 262.863281 110.832031 C 275.613281 89.390625 271.089844 61.277344 251.175781 45.035156 C 236.140625 32.773438 216.242188 30.460938 199.460938 37.289062 C 197.683594 38.011719 196.816406 40.019531 197.511719 41.804688 Z M 197.511719 41.804688 " fill-opacity="1" fill-rule="nonzero"/></g></g></g><g clip-path="url(#8e476a3c80)"><g clip-path="url(#20d179e3a1)"><g clip-path="url(#343c080322)"><path fill="#00254f" d="M 209.179688 55.644531 C 209.589844 57.476562 211.332031 58.699219 213.195312 58.4375 C 216.066406 58.039062 219.015625 57.914062 222.019531 58.089844 C 242.515625 59.265625 259.015625 73.984375 263.335938 93.054688 C 261.300781 70.59375 243.085938 52.414062 219.894531 51.078125 C 217.335938 50.929688 214.816406 50.996094 212.351562 51.253906 C 210.191406 51.480469 208.707031 53.527344 209.179688 55.644531 Z M 209.179688 55.644531 " fill-opacity="1" fill-rule="nonzero"/></g></g></g><g clip-path="url(#04ea6cad95)"><g clip-path="url(#892bbf3025)"><g clip-path="url(#2623f0f21f)"><path fill="#e4bb25" d="M 220.535156 20.671875 C 220.40625 20.96875 220.304688 21.277344 220.238281 21.597656 C 220.167969 21.914062 220.132812 22.238281 220.128906 22.5625 C 220.125 22.886719 220.152344 23.210938 220.210938 23.53125 C 220.269531 23.851562 220.359375 24.164062 220.476562 24.464844 C 220.597656 24.769531 220.746094 25.058594 220.925781 25.332031 C 221.101562 25.605469 221.300781 25.855469 221.53125 26.089844 C 221.757812 26.324219 222.003906 26.535156 222.273438 26.71875 C 222.539062 26.902344 222.824219 27.058594 223.121094 27.191406 C 223.421875 27.320312 223.730469 27.417969 224.046875 27.484375 C 224.367188 27.554688 224.6875 27.589844 225.015625 27.59375 C 225.339844 27.601562 225.664062 27.574219 225.984375 27.515625 C 226.304688 27.457031 226.617188 27.367188 226.917969 27.246094 C 227.222656 27.125 227.507812 26.976562 227.78125 26.800781 C 228.054688 26.621094 228.308594 26.421875 228.542969 26.195312 C 228.777344 25.96875 228.984375 25.71875 229.171875 25.453125 C 229.355469 25.183594 229.511719 24.898438 229.640625 24.601562 C 229.769531 24.300781 229.871094 23.992188 229.9375 23.675781 C 230.007812 23.355469 230.042969 23.035156 230.046875 22.707031 C 230.050781 22.382812 230.023438 22.058594 229.964844 21.738281 C 229.90625 21.417969 229.816406 21.109375 229.699219 20.804688 C 229.578125 20.503906 229.429688 20.214844 229.253906 19.941406 C 229.074219 19.667969 228.875 19.414062 228.644531 19.179688 C 228.417969 18.945312 228.171875 18.738281 227.902344 18.550781 C 227.636719 18.367188 227.351562 18.210938 227.054688 18.082031 C 226.753906 17.953125 226.445312 17.855469 226.128906 17.785156 C 225.808594 17.71875 225.488281 17.679688 225.160156 17.675781 C 224.835938 17.671875 224.511719 17.699219 224.191406 17.757812 C 223.871094 17.816406 223.558594 17.90625 223.257812 18.027344 C 222.953125 18.144531 222.667969 18.292969 222.394531 18.472656 C 222.121094 18.648438 221.867188 18.851562 221.632812 19.078125 C 221.398438 19.304688 221.191406 19.550781 221.003906 19.820312 C 220.820312 20.085938 220.664062 20.371094 220.535156 20.671875 Z M 220.535156 20.671875 " fill-opacity="1" fill-rule="nonzero"/></g></g></g><g clip-path="url(#cc90e93ab3)"><g clip-path="url(#9e32d070a9)"><g clip-path="url(#ffd9fac749)"><path fill="#00254f" d="M 187.644531 43.148438 C 187.515625 43.449219 187.414062 43.757812 187.347656 44.074219 C 187.28125 44.394531 187.242188 44.714844 187.238281 45.042969 C 187.234375 45.367188 187.261719 45.691406 187.320312 46.011719 C 187.378906 46.332031 187.46875 46.644531 187.585938 46.945312 C 187.707031 47.246094 187.855469 47.535156 188.035156 47.808594 C 188.210938 48.082031 188.410156 48.335938 188.640625 48.570312 C 188.867188 48.804688 189.113281 49.011719 189.382812 49.199219 C 189.648438 49.382812 189.933594 49.539062 190.230469 49.667969 C 190.53125 49.796875 190.839844 49.894531 191.160156 49.964844 C 191.476562 50.03125 191.796875 50.070312 192.125 50.074219 C 192.449219 50.078125 192.773438 50.050781 193.09375 49.992188 C 193.414062 49.933594 193.726562 49.84375 194.027344 49.726562 C 194.332031 49.605469 194.617188 49.457031 194.890625 49.277344 C 195.164062 49.101562 195.417969 48.898438 195.652344 48.671875 C 195.886719 48.445312 196.09375 48.199219 196.28125 47.929688 C 196.464844 47.664062 196.621094 47.378906 196.75 47.082031 C 196.878906 46.78125 196.980469 46.472656 197.046875 46.152344 C 197.117188 45.835938 197.152344 45.511719 197.15625 45.1875 C 197.160156 44.863281 197.132812 44.539062 197.074219 44.21875 C 197.015625 43.898438 196.925781 43.585938 196.808594 43.285156 C 196.6875 42.980469 196.539062 42.695312 196.363281 42.421875 C 196.183594 42.148438 195.984375 41.894531 195.753906 41.660156 C 195.527344 41.425781 195.28125 41.21875 195.011719 41.03125 C 194.746094 40.847656 194.460938 40.691406 194.164062 40.5625 C 193.863281 40.433594 193.554688 40.332031 193.238281 40.265625 C 192.917969 40.195312 192.597656 40.160156 192.269531 40.15625 C 191.945312 40.152344 191.621094 40.179688 191.300781 40.238281 C 190.980469 40.296875 190.667969 40.386719 190.367188 40.503906 C 190.0625 40.625 189.777344 40.773438 189.503906 40.949219 C 189.230469 41.128906 188.976562 41.328125 188.742188 41.554688 C 188.507812 41.785156 188.300781 42.03125 188.113281 42.300781 C 187.929688 42.566406 187.773438 42.851562 187.644531 43.148438 Z M 187.644531 43.148438 " fill-opacity="1" fill-rule="nonzero"/></g></g></g><g clip-path="url(#d5220940b0)"><g clip-path="url(#cb23a9a23d)"><g clip-path="url(#a9c961b22c)"><path fill="#e4bb25" d="M 198.257812 55.902344 C 198.128906 56.199219 198.03125 56.507812 197.964844 56.828125 C 197.894531 57.144531 197.859375 57.46875 197.855469 57.792969 C 197.847656 58.117188 197.875 58.441406 197.933594 58.761719 C 197.992188 59.082031 198.082031 59.394531 198.203125 59.695312 C 198.324219 60 198.472656 60.285156 198.648438 60.558594 C 198.824219 60.832031 199.027344 61.085938 199.253906 61.320312 C 199.480469 61.554688 199.730469 61.765625 199.996094 61.949219 C 200.265625 62.132812 200.550781 62.289062 200.847656 62.417969 C 201.148438 62.546875 201.457031 62.648438 201.773438 62.714844 C 202.09375 62.785156 202.414062 62.820312 202.738281 62.824219 C 203.066406 62.828125 203.390625 62.804688 203.710938 62.742188 C 204.03125 62.683594 204.339844 62.59375 204.644531 62.476562 C 204.945312 62.355469 205.234375 62.207031 205.507812 62.03125 C 205.78125 61.851562 206.035156 61.652344 206.269531 61.425781 C 206.503906 61.195312 206.710938 60.949219 206.894531 60.683594 C 207.082031 60.414062 207.238281 60.128906 207.367188 59.832031 C 207.496094 59.53125 207.59375 59.222656 207.664062 58.90625 C 207.730469 58.585938 207.769531 58.265625 207.773438 57.9375 C 207.777344 57.613281 207.75 57.289062 207.691406 56.96875 C 207.632812 56.648438 207.542969 56.339844 207.421875 56.035156 C 207.300781 55.734375 207.152344 55.445312 206.976562 55.171875 C 206.800781 54.898438 206.597656 54.644531 206.371094 54.410156 C 206.144531 54.175781 205.898438 53.96875 205.628906 53.78125 C 205.359375 53.597656 205.078125 53.441406 204.777344 53.3125 C 204.480469 53.183594 204.171875 53.085938 203.851562 53.015625 C 203.535156 52.949219 203.210938 52.910156 202.886719 52.90625 C 202.558594 52.902344 202.238281 52.929688 201.917969 52.988281 C 201.597656 53.046875 201.285156 53.136719 200.984375 53.257812 C 200.679688 53.375 200.390625 53.523438 200.117188 53.703125 C 199.84375 53.878906 199.589844 54.082031 199.359375 54.308594 C 199.125 54.535156 198.914062 54.78125 198.730469 55.050781 C 198.546875 55.316406 198.386719 55.601562 198.257812 55.902344 Z M 198.257812 55.902344 " fill-opacity="1" fill-rule="nonzero"/></g></g></g><g clip-path="url(#8b322aed21)"><g clip-path="url(#2099388849)"><g clip-path="url(#f09a25e982)"><path fill="#00254f" d="M 210.847656 26.710938 C 210.707031 27.039062 210.632812 27.382812 210.628906 27.738281 C 210.625 28.097656 210.6875 28.441406 210.820312 28.773438 C 210.949219 29.105469 211.140625 29.398438 211.390625 29.65625 C 211.636719 29.910156 211.925781 30.109375 212.253906 30.25 C 212.582031 30.390625 212.925781 30.464844 213.28125 30.472656 C 213.640625 30.476562 213.984375 30.414062 214.316406 30.28125 C 214.648438 30.148438 214.941406 29.960938 215.199219 29.710938 C 215.453125 29.460938 215.652344 29.171875 215.792969 28.84375 C 215.933594 28.519531 216.007812 28.175781 216.015625 27.816406 C 216.019531 27.460938 215.957031 27.117188 215.824219 26.785156 C 215.691406 26.453125 215.503906 26.160156 215.253906 25.902344 C 215.003906 25.648438 214.714844 25.449219 214.386719 25.304688 C 214.0625 25.164062 213.71875 25.089844 213.363281 25.085938 C 213.003906 25.082031 212.660156 25.144531 212.328125 25.277344 C 211.996094 25.40625 211.703125 25.597656 211.445312 25.847656 C 211.191406 26.09375 210.992188 26.382812 210.847656 26.710938 Z M 210.847656 26.710938 " fill-opacity="1" fill-rule="nonzero"/></g></g></g><g clip-path="url(#db9fed9c95)"><g clip-path="url(#1ed366cd0a)"><g clip-path="url(#4992c9b147)"><path fill="#00254f" d="M 186.992188 57.175781 C 186.851562 57.503906 186.777344 57.847656 186.773438 58.203125 C 186.765625 58.558594 186.832031 58.90625 186.960938 59.238281 C 187.09375 59.566406 187.285156 59.863281 187.53125 60.117188 C 187.78125 60.375 188.070312 60.574219 188.398438 60.714844 C 188.726562 60.855469 189.066406 60.929688 189.425781 60.933594 C 189.78125 60.941406 190.125 60.878906 190.457031 60.746094 C 190.789062 60.613281 191.085938 60.421875 191.339844 60.175781 C 191.597656 59.925781 191.796875 59.636719 191.9375 59.308594 C 192.078125 58.980469 192.152344 58.640625 192.15625 58.28125 C 192.164062 57.925781 192.097656 57.582031 191.96875 57.25 C 191.835938 56.917969 191.644531 56.625 191.394531 56.367188 C 191.148438 56.109375 190.859375 55.910156 190.53125 55.769531 C 190.203125 55.628906 189.859375 55.554688 189.503906 55.550781 C 189.148438 55.546875 188.804688 55.609375 188.472656 55.738281 C 188.140625 55.871094 187.84375 56.0625 187.589844 56.3125 C 187.332031 56.558594 187.132812 56.847656 186.992188 57.175781 Z M 186.992188 57.175781 " fill-opacity="1" fill-rule="nonzero"/></g></g></g><g clip-path="url(#86cb7e9683)"><g clip-path="url(#328f1e4026)"><g clip-path="url(#f0ef813751)"><path fill="#e4bb25" d="M 263.667969 27.71875 C 263.527344 28.046875 263.453125 28.390625 263.449219 28.746094 C 263.445312 29.105469 263.507812 29.449219 263.640625 29.78125 C 263.769531 30.113281 263.960938 30.40625 264.210938 30.664062 C 264.457031 30.917969 264.746094 31.117188 265.074219 31.257812 C 265.402344 31.402344 265.746094 31.472656 266.101562 31.480469 C 266.460938 31.484375 266.804688 31.421875 267.136719 31.289062 C 267.46875 31.15625 267.761719 30.96875 268.019531 30.71875 C 268.273438 30.46875 268.472656 30.183594 268.613281 29.855469 C 268.753906 29.527344 268.828125 29.183594 268.835938 28.828125 C 268.839844 28.46875 268.777344 28.125 268.644531 27.792969 C 268.511719 27.460938 268.324219 27.167969 268.074219 26.910156 C 267.824219 26.65625 267.535156 26.457031 267.207031 26.316406 C 266.882812 26.171875 266.539062 26.101562 266.179688 26.09375 C 265.824219 26.089844 265.480469 26.152344 265.148438 26.285156 C 264.816406 26.417969 264.523438 26.605469 264.265625 26.855469 C 264.011719 27.105469 263.8125 27.390625 263.667969 27.71875 Z M 263.667969 27.71875 " fill-opacity="1" fill-rule="nonzero"/></g></g></g><g clip-path="url(#46e6297e1e)"><g clip-path="url(#9c706d0c81)"><g clip-path="url(#0acfc5bf09)"><path fill="#00254f" d="M 270.980469 33.34375 C 270.851562 33.644531 270.753906 33.953125 270.683594 34.269531 C 270.617188 34.589844 270.578125 34.910156 270.574219 35.238281 C 270.570312 35.5625 270.597656 35.886719 270.65625 36.207031 C 270.714844 36.527344 270.804688 36.835938 270.925781 37.140625 C 271.042969 37.441406 271.191406 37.730469 271.371094 38.003906 C 271.546875 38.277344 271.75 38.53125 271.976562 38.765625 C 272.203125 39 272.449219 39.207031 272.71875 39.394531 C 272.984375 39.578125 273.269531 39.734375 273.570312 39.863281 C 273.867188 39.992188 274.175781 40.089844 274.496094 40.160156 C 274.8125 40.226562 275.136719 40.265625 275.460938 40.269531 C 275.785156 40.273438 276.109375 40.246094 276.429688 40.1875 C 276.75 40.128906 277.0625 40.039062 277.363281 39.917969 C 277.667969 39.800781 277.957031 39.652344 278.230469 39.472656 C 278.503906 39.296875 278.753906 39.09375 278.988281 38.867188 C 279.222656 38.640625 279.433594 38.394531 279.617188 38.125 C 279.800781 37.859375 279.957031 37.574219 280.089844 37.273438 C 280.21875 36.976562 280.316406 36.667969 280.382812 36.347656 C 280.453125 36.03125 280.488281 35.707031 280.492188 35.382812 C 280.5 35.058594 280.472656 34.734375 280.414062 34.414062 C 280.355469 34.09375 280.265625 33.78125 280.144531 33.480469 C 280.023438 33.175781 279.875 32.890625 279.699219 32.617188 C 279.519531 32.34375 279.320312 32.089844 279.09375 31.855469 C 278.867188 31.621094 278.617188 31.410156 278.351562 31.226562 C 278.082031 31.042969 277.796875 30.886719 277.5 30.757812 C 277.199219 30.628906 276.890625 30.527344 276.574219 30.460938 C 276.253906 30.390625 275.933594 30.355469 275.605469 30.351562 C 275.28125 30.347656 274.957031 30.371094 274.636719 30.433594 C 274.316406 30.492188 274.007812 30.578125 273.703125 30.699219 C 273.402344 30.820312 273.113281 30.96875 272.839844 31.144531 C 272.566406 31.324219 272.3125 31.523438 272.078125 31.75 C 271.84375 31.976562 271.636719 32.226562 271.449219 32.492188 C 271.265625 32.761719 271.109375 33.046875 270.980469 33.34375 Z M 270.980469 33.34375 " fill-opacity="1" fill-rule="nonzero"/></g></g></g><g fill="#ffffff" fill-opacity="1"><g transform="translate(18.517413, 116.649044)"><g><path d="M 20.3125 0.578125 C 17.675781 0.578125 15.269531 0.144531 13.09375 -0.71875 C 10.925781 -1.59375 9.0625 -2.800781 7.5 -4.34375 C 5.9375 -5.882812 4.722656 -7.71875 3.859375 -9.84375 C 2.992188 -11.96875 2.5625 -14.285156 2.5625 -16.796875 L 2.5625 -16.890625 C 2.5625 -19.296875 3.003906 -21.550781 3.890625 -23.65625 C 4.773438 -25.769531 6.003906 -27.625 7.578125 -29.21875 C 9.148438 -30.8125 11.015625 -32.066406 13.171875 -32.984375 C 15.328125 -33.898438 17.691406 -34.359375 20.265625 -34.359375 C 21.773438 -34.359375 23.148438 -34.253906 24.390625 -34.046875 C 25.628906 -33.835938 26.78125 -33.535156 27.84375 -33.140625 C 28.90625 -32.753906 29.898438 -32.269531 30.828125 -31.6875 C 31.765625 -31.113281 32.664062 -30.457031 33.53125 -29.71875 L 28.859375 -24.078125 C 28.210938 -24.617188 27.566406 -25.097656 26.921875 -25.515625 C 26.273438 -25.941406 25.609375 -26.296875 24.921875 -26.578125 C 24.234375 -26.867188 23.484375 -27.09375 22.671875 -27.25 C 21.867188 -27.414062 20.988281 -27.5 20.03125 -27.5 C 18.675781 -27.5 17.410156 -27.21875 16.234375 -26.65625 C 15.054688 -26.09375 14.023438 -25.335938 13.140625 -24.390625 C 12.265625 -23.441406 11.578125 -22.332031 11.078125 -21.0625 C 10.578125 -19.789062 10.328125 -18.429688 10.328125 -16.984375 L 10.328125 -16.890625 C 10.328125 -15.347656 10.578125 -13.921875 11.078125 -12.609375 C 11.578125 -11.304688 12.285156 -10.171875 13.203125 -9.203125 C 14.117188 -8.242188 15.191406 -7.5 16.421875 -6.96875 C 17.660156 -6.4375 19.035156 -6.171875 20.546875 -6.171875 C 23.316406 -6.171875 25.648438 -6.847656 27.546875 -8.203125 L 27.546875 -13.03125 L 20.078125 -13.03125 L 20.078125 -19.4375 L 34.734375 -19.4375 L 34.734375 -4.78125 C 33.003906 -3.300781 30.9375 -2.035156 28.53125 -0.984375 C 26.132812 0.0546875 23.394531 0.578125 20.3125 0.578125 Z M 20.3125 0.578125 "/></g></g></g><g fill="#ffffff" fill-opacity="1"><g transform="translate(56.341754, 116.649044)"><g><path d="M 20.453125 0.578125 C 17.847656 0.578125 15.453125 0.117188 13.265625 -0.796875 C 11.078125 -1.710938 9.1875 -2.945312 7.59375 -4.5 C 6.007812 -6.0625 4.773438 -7.894531 3.890625 -10 C 3.003906 -12.113281 2.5625 -14.378906 2.5625 -16.796875 L 2.5625 -16.890625 C 2.5625 -19.296875 3.007812 -21.550781 3.90625 -23.65625 C 4.8125 -25.769531 6.054688 -27.625 7.640625 -29.21875 C 9.234375 -30.8125 11.128906 -32.066406 13.328125 -32.984375 C 15.535156 -33.898438 17.941406 -34.359375 20.546875 -34.359375 C 23.160156 -34.359375 25.5625 -33.898438 27.75 -32.984375 C 29.9375 -32.066406 31.820312 -30.828125 33.40625 -29.265625 C 35 -27.703125 36.238281 -25.867188 37.125 -23.765625 C 38.007812 -21.660156 38.453125 -19.398438 38.453125 -16.984375 L 38.453125 -16.890625 C 38.453125 -14.472656 38 -12.210938 37.09375 -10.109375 C 36.195312 -8.003906 34.953125 -6.15625 33.359375 -4.5625 C 31.765625 -2.96875 29.863281 -1.710938 27.65625 -0.796875 C 25.457031 0.117188 23.054688 0.578125 20.453125 0.578125 Z M 20.546875 -6.265625 C 22.035156 -6.265625 23.40625 -6.535156 24.65625 -7.078125 C 25.90625 -7.628906 26.972656 -8.390625 27.859375 -9.359375 C 28.742188 -10.328125 29.4375 -11.445312 29.9375 -12.71875 C 30.4375 -13.988281 30.6875 -15.347656 30.6875 -16.796875 L 30.6875 -16.890625 C 30.6875 -18.335938 30.4375 -19.703125 29.9375 -20.984375 C 29.4375 -22.273438 28.726562 -23.398438 27.8125 -24.359375 C 26.894531 -25.328125 25.804688 -26.09375 24.546875 -26.65625 C 23.296875 -27.21875 21.929688 -27.5 20.453125 -27.5 C 18.941406 -27.5 17.566406 -27.222656 16.328125 -26.671875 C 15.085938 -26.128906 14.023438 -25.375 13.140625 -24.40625 C 12.265625 -23.445312 11.578125 -22.332031 11.078125 -21.0625 C 10.578125 -19.789062 10.328125 -18.429688 10.328125 -16.984375 L 10.328125 -16.890625 C 10.328125 -15.441406 10.578125 -14.070312 11.078125 -12.78125 C 11.578125 -11.5 12.285156 -10.375 13.203125 -9.40625 C 14.117188 -8.445312 15.191406 -7.679688 16.421875 -7.109375 C 17.660156 -6.546875 19.035156 -6.265625 20.546875 -6.265625 Z M 20.546875 -6.265625 "/></g></g></g><g fill="#ffffff" fill-opacity="1"><g transform="translate(97.350285, 116.649044)"><g><path d="M 4.046875 -33.78125 L 17.21875 -33.78125 C 19.863281 -33.78125 22.285156 -33.351562 24.484375 -32.5 C 26.691406 -31.644531 28.585938 -30.460938 30.171875 -28.953125 C 31.765625 -27.441406 32.992188 -25.660156 33.859375 -23.609375 C 34.734375 -21.566406 35.171875 -19.359375 35.171875 -16.984375 L 35.171875 -16.890625 C 35.171875 -14.503906 34.734375 -12.28125 33.859375 -10.21875 C 32.992188 -8.164062 31.765625 -6.382812 30.171875 -4.875 C 28.585938 -3.363281 26.691406 -2.171875 24.484375 -1.296875 C 22.285156 -0.429688 19.863281 0 17.21875 0 L 4.046875 0 Z M 11.484375 -27.0625 L 11.484375 -6.703125 L 17.21875 -6.703125 C 18.738281 -6.703125 20.125 -6.941406 21.375 -7.421875 C 22.625 -7.910156 23.691406 -8.601562 24.578125 -9.5 C 25.460938 -10.40625 26.15625 -11.46875 26.65625 -12.6875 C 27.15625 -13.90625 27.40625 -15.273438 27.40625 -16.796875 L 27.40625 -16.890625 C 27.40625 -18.367188 27.15625 -19.734375 26.65625 -20.984375 C 26.15625 -22.242188 25.460938 -23.320312 24.578125 -24.21875 C 23.691406 -25.125 22.625 -25.820312 21.375 -26.3125 C 20.125 -26.8125 18.738281 -27.0625 17.21875 -27.0625 Z M 11.484375 -27.0625 "/></g></g></g><g fill="#ffffff" fill-opacity="1"><g transform="translate(135.078138, 116.649044)"><g><path d="M 4.046875 -33.78125 L 17.21875 -33.78125 C 19.863281 -33.78125 22.285156 -33.351562 24.484375 -32.5 C 26.691406 -31.644531 28.585938 -30.460938 30.171875 -28.953125 C 31.765625 -27.441406 32.992188 -25.660156 33.859375 -23.609375 C 34.734375 -21.566406 35.171875 -19.359375 35.171875 -16.984375 L 35.171875 -16.890625 C 35.171875 -14.503906 34.734375 -12.28125 33.859375 -10.21875 C 32.992188 -8.164062 31.765625 -6.382812 30.171875 -4.875 C 28.585938 -3.363281 26.691406 -2.171875 24.484375 -1.296875 C 22.285156 -0.429688 19.863281 0 17.21875 0 L 4.046875 0 Z M 11.484375 -27.0625 L 11.484375 -6.703125 L 17.21875 -6.703125 C 18.738281 -6.703125 20.125 -6.941406 21.375 -7.421875 C 22.625 -7.910156 23.691406 -8.601562 24.578125 -9.5 C 25.460938 -10.40625 26.15625 -11.46875 26.65625 -12.6875 C 27.15625 -13.90625 27.40625 -15.273438 27.40625 -16.796875 L 27.40625 -16.890625 C 27.40625 -18.367188 27.15625 -19.734375 26.65625 -20.984375 C 26.15625 -22.242188 25.460938 -23.320312 24.578125 -24.21875 C 23.691406 -25.125 22.625 -25.820312 21.375 -26.3125 C 20.125 -26.8125 18.738281 -27.0625 17.21875 -27.0625 Z M 11.484375 -27.0625 "/></g></g></g><g fill="#ffffff" fill-opacity="1"><g transform="translate(172.805991, 116.649044)"><g><path d="M 15.640625 -34.015625 L 22.484375 -34.015625 L 36.953125 0 L 29.1875 0 L 26.109375 -7.578125 L 11.828125 -7.578125 L 8.734375 0 L 1.15625 0 Z M 23.453125 -14.140625 L 18.96875 -25.09375 L 14.46875 -14.140625 Z M 23.453125 -14.140625 "/></g></g></g><g fill="#ffffff" fill-opacity="1"><g transform="translate(210.919818, 116.649044)"><g><path d="M 13.5625 -13.3125 L 0.578125 -33.78125 L 9.265625 -33.78125 L 17.328125 -20.21875 L 25.53125 -33.78125 L 33.96875 -33.78125 L 20.984375 -13.46875 L 20.984375 0 L 13.5625 0 Z M 13.5625 -13.3125 "/></g></g></g><g fill="#ffffff" fill-opacity="1"><g transform="translate(81.24147, 73.326483)"><g><path d="M 5.984375 0.15625 C 4.929688 0.15625 3.972656 0.015625 3.109375 -0.265625 C 2.242188 -0.546875 1.5 -0.960938 0.875 -1.515625 L 1.578125 -2.953125 C 2.234375 -2.421875 2.910156 -2.035156 3.609375 -1.796875 C 4.316406 -1.554688 5.113281 -1.4375 6 -1.4375 C 7.007812 -1.4375 7.789062 -1.625 8.34375 -2 C 8.90625 -2.382812 9.1875 -2.921875 9.1875 -3.609375 C 9.1875 -4.191406 8.925781 -4.628906 8.40625 -4.921875 C 7.882812 -5.222656 7.066406 -5.5 5.953125 -5.75 C 4.878906 -5.976562 4 -6.238281 3.3125 -6.53125 C 2.632812 -6.832031 2.097656 -7.234375 1.703125 -7.734375 C 1.316406 -8.234375 1.125 -8.875 1.125 -9.65625 C 1.125 -10.4375 1.332031 -11.125 1.75 -11.71875 C 2.164062 -12.320312 2.753906 -12.789062 3.515625 -13.125 C 4.273438 -13.46875 5.15625 -13.640625 6.15625 -13.640625 C 7.101562 -13.640625 7.988281 -13.492188 8.8125 -13.203125 C 9.644531 -12.910156 10.335938 -12.5 10.890625 -11.96875 L 10.1875 -10.53125 C 9.570312 -11.050781 8.9375 -11.429688 8.28125 -11.671875 C 7.625 -11.921875 6.921875 -12.046875 6.171875 -12.046875 C 5.203125 -12.046875 4.4375 -11.835938 3.875 -11.421875 C 3.320312 -11.015625 3.046875 -10.457031 3.046875 -9.75 C 3.046875 -9.144531 3.285156 -8.679688 3.765625 -8.359375 C 4.253906 -8.046875 5.035156 -7.765625 6.109375 -7.515625 C 7.234375 -7.265625 8.144531 -7 8.84375 -6.71875 C 9.539062 -6.445312 10.097656 -6.066406 10.515625 -5.578125 C 10.929688 -5.097656 11.140625 -4.484375 11.140625 -3.734375 C 11.140625 -2.953125 10.929688 -2.269531 10.515625 -1.6875 C 10.097656 -1.101562 9.5 -0.648438 8.71875 -0.328125 C 7.945312 -0.00390625 7.035156 0.15625 5.984375 0.15625 Z M 5.984375 0.15625 "/></g></g></g><g fill="#ffffff" fill-opacity="1"><g transform="translate(93.227965, 73.326483)"><g><path d="M 11.0625 -13.484375 L 13.015625 -13.484375 L 13.015625 0 L 11.0625 0 L 11.0625 -6.046875 L 3.5 -6.046875 L 3.5 0 L 1.578125 0 L 1.578125 -13.484375 L 3.5 -13.484375 L 3.5 -7.65625 L 11.0625 -7.65625 Z M 11.0625 -13.484375 "/></g></g></g><g fill="#ffffff" fill-opacity="1"><g transform="translate(107.808691, 73.326483)"><g><path d="M 1.578125 0 L 1.578125 -13.484375 L 3.515625 -13.484375 L 3.515625 0 Z M 1.578125 0 "/></g></g></g><g fill="#ffffff" fill-opacity="1"><g transform="translate(112.902478, 73.326483)"><g><path d="M 1.578125 -13.484375 L 7.171875 -13.484375 C 8.585938 -13.484375 9.691406 -13.140625 10.484375 -12.453125 C 11.273438 -11.765625 11.671875 -10.828125 11.671875 -9.640625 C 11.671875 -8.453125 11.269531 -7.515625 10.46875 -6.828125 C 9.664062 -6.140625 8.566406 -5.796875 7.171875 -5.796875 L 3.515625 -5.796875 L 3.515625 0 L 1.578125 0 Z M 6.953125 -7.34375 C 7.878906 -7.34375 8.578125 -7.535156 9.046875 -7.921875 C 9.523438 -8.316406 9.765625 -8.890625 9.765625 -9.640625 C 9.765625 -10.367188 9.523438 -10.925781 9.046875 -11.3125 C 8.578125 -11.707031 7.878906 -11.90625 6.953125 -11.90625 L 3.515625 -11.90625 L 3.515625 -7.34375 Z M 6.953125 -7.34375 "/></g></g></g><g fill="#ffffff" fill-opacity="1"><g transform="translate(125.362366, 73.326483)"><g/></g></g><g fill="#ffffff" fill-opacity="1"><g transform="translate(130.418279, 73.326483)"><g><path d="M 18.671875 -13.484375 L 20.578125 -13.484375 L 15.828125 0 L 14.203125 0 L 10.5625 -10.421875 L 6.90625 0 L 5.28125 0 L 0.546875 -13.484375 L 2.53125 -13.484375 L 6.15625 -2.765625 L 9.890625 -13.484375 L 11.328125 -13.46875 L 15 -2.703125 Z M 18.671875 -13.484375 "/></g></g></g><g fill="#ffffff" fill-opacity="1"><g transform="translate(151.550856, 73.326483)"><g><path d="M 1.578125 0 L 1.578125 -13.484375 L 3.515625 -13.484375 L 3.515625 0 Z M 1.578125 0 "/></g></g></g><g fill="#ffffff" fill-opacity="1"><g transform="translate(156.644644, 73.326483)"><g><path d="M 4.796875 0 L 4.796875 -11.859375 L 0.234375 -11.859375 L 0.234375 -13.484375 L 11.328125 -13.484375 L 11.328125 -11.859375 L 6.765625 -11.859375 L 6.765625 0 Z M 4.796875 0 "/></g></g></g><g fill="#ffffff" fill-opacity="1"><g transform="translate(168.195608, 73.326483)"><g><path d="M 11.0625 -13.484375 L 13.015625 -13.484375 L 13.015625 0 L 11.0625 0 L 11.0625 -6.046875 L 3.5 -6.046875 L 3.5 0 L 1.578125 0 L 1.578125 -13.484375 L 3.5 -13.484375 L 3.5 -7.65625 L 11.0625 -7.65625 Z M 11.0625 -13.484375 "/></g></g></g></svg>